<?xml version="1.0" encoding="UTF-8" standalone="no"?>
<svg id="svgmap" xmlns="http://www.w3.org/2000/svg" width="100%" height="100%" version="1.1">
	<path d="m517.3,77.88,12.51-14.96,11.51,9.624-12.51,14.96z" class="big1 area ctuarea"/>
	<path d="m421.2,192.4,12.51-14.96,11.51,9.624-12.51,14.96z" class="big1 area ctuarea"/>
	<path d="m390.1,771.5-21.76,110.2,93.36,29.11c27.65,7.742,47.38-1.003,66.47-23.83l173.2-207.2-138.1-115.5zm23.4,34.36,25.66-30.68,76.71,64.16-33.88,40.53-78.18-23.45zm48.12-57.53,19.25-23.01,76.71,64.16-19.25,23.01zm70.57-84.38,38.49-46.02,23.01,19.25-38.49,46.02zm-24.41,44.77,12.83-15.34,61.37,51.33-12.83,15.34zm78.1,0.141,38.49-46.02,23.01,19.25-38.49,46.02z" class="big1 area otherarea"/>
	<path d="m352.1,1304,29.87-2.838-0.9458-9.955,129.4-12.3-2.838-29.87-3.311-34.84-29.87,2.838,3.311,34.84-99.55,9.459-21.28-224,19.69-57.12,77.74,25.26,5.912,62.22,29.87-2.838-8.513-89.6-124.2-38.43-31.31,93.38z" class="big1 area otherarea"/>
	<path d="m113.7,879.7-12.67,74.59,119.1,21.23,25.19-81.18,4.775,1.482,14.82-47.75-4.775-1.482,25.19-81.18-110.2-49.88-31.77,68.67,4.525,2.287-7.158,23.07-4.775-1.482-14.82,47.75,4.775,1.482-7.167,23.1zm20.08,2.763,6.426-20.71,76.41,23.71,1.482-4.775,4.775,1.482-13.33,42.98-69.82-11.19,4.114-30.13zm21.24-68.47,6.426-20.71,9.051,4.575,13.67-27.17,63.89,30.29-13.33,42.98-4.775-1.482,1.482-4.775z" class="big1 area otherarea"/>
	<path d="m560,894c-8.049,17.55-7.21,39.08,17.01,51.75l340.1,104.2c21.88,4.943,33.56-2.173,43.44-10.92l69.81-83.18-80.42-67.51-19.3,22.97-145.5-122.1,19.3-22.97-80.42-67.51-163.9,195.3zm35.83,3.974,102-121.6,7.263,6.075,12.83-15.34-7.239-6.055,10.47-12.47,45.96,38.57-61.07,72.77,156.9,131.7-7.562,8.993-248.9-75.88c1.364-7.787-1.251-18.12-10.71-26.8zm141.6-44.32,35.36-42.13,15.32,12.86-35.36,42.13-15.32-12.86zm30.64,25.71,35.36-42.13,26.81,22.5-35.36,42.13-26.81-22.5zm49.78,41.8,35.36-42.13,26.81,22.5-35.36,42.13-26.81-22.5zm63.72,87.43,64.92-77.37,38.86,32.99-37.46,44.65c-14.4-7.6-27.9-7.5-37.6,9.4l-28.6-9.7z" class="big1 area otherarea"/>
	<path d="m1089,893.9,61.07-72.77-45.96-38.57,57.86-68.94-26.81-22.5-57.86,68.94-68.94-57.86,57.86-68.94-26.81-22.5-57.86,68.94-68.94-57.86,57.86-68.94-26.81-22.5-57.86,68.94-45.96-38.57-61.07,72.77,22.98,19.29,45-53.62,22.98,19.28-28.93,34.47,26.81,22.5,28.93-34.47,22.98,19.28-45,53.62,22.98,19.29,45-53.62,22.98,19.28-25.71,30.64,26.81,22.5,25.71-30.64,22.98,19.28-45,53.62,22.98,19.29,45-53.62,22.98,19.28-28.93,34.47,26.81,22.5,28.93-34.47,22.98,19.28-45,53.62,22.98,19.29z" class="big1 area ctuarea"/>
	<path d="m948.2,462.6,6.771,77.49,15.32,12.86,155-13.54,13.54,155,15.32,12.86,56.77-4.939,2.185,25.01-7.044,0.6155,3.693,42.27,49.31-4.309-3.698-42.27-7.044,0.6157-29.07-327.9-211.3,18.47,3.693,42.27-63.4,5.54zm23.28,18.93,41.96-3.334,4.309,49.31-42.27,3.693-4.007-49.67z" class="big1 area ctuarea"/>
	<path d="m1335,697.4,5.345,62.78-44.46,3.785-5.345-62.78z" class="big1 area ctuarea"/>
	<path id="TK" class="big1 area fitarea" d="m768.5,440.1,42.65,36.6c19.72,16.92,21.97,46.42,5.051,66.13l-36.6,42.65c-16.92,19.72-46.42,21.97-66.13,5.051l-42.65-36.6c-19.72-16.92-21.97-46.42-5.051-66.13l36.6-42.65c16.92-19.72,46.42-21.97,66.13-5.051z"/>
	<path d="m560,894c-8.049,17.55-7.21,39.08,17.01,51.75l340.1,104.2c21.88,4.943,33.56-2.173,43.44-10.92l69.81-83.18-80.42-67.51-22.7,27.05,58.19,48.83-37.46,44.65c-14.54-7.529-27.97-7.416-37.74,9.463l-54.8-17.6-248.9-75.9c1.364-7.787-1.251-18.12-10.71-26.8l12.03-14.34,7.455,6.235,12.83-15.34-7.431-6.215,26.9-32.01-22.97-19.3-64.64,76.99z" class="big1 area ctuarea"/>
	<path id="Z2:B1" class="big1 area fitarea" d="m960.5,1039,69.81-83.18-80.42-67.51-22.7,27.05,58.19,48.83-37.46,44.65z"/>
	<g>
		<path d="m1310,450.3,19.41,238.1-41.18,3.357-19.41-238.1z" class="big1 area otherarea"/>
		<path id="J5" class="big1 area ctuarea" d="m1310,450.3,9.856,120.9-41.15,3.355-9.856-120.9z"/>
	</g>
	<g id="T4">
		<path id="T4:A2" d="m897.3,733.2,45-53.62-22.98-19.29-45,53.62z" class="ctuarea"/>
		<path id="T4:D1" d="m867.4,675.4,28.93-34.47-26.81-22.5-28.93,34.47z" class="ctuarea"/>
		<path id="T4:B1" d="m912.4,621.8-26.81-22.5,57.86-68.94,26.82,22.51z" class="ctuarea"/>
		<path id="T4:B2" d="m1008,702.2,57.86-68.94-26.81-22.5-57.86,68.94z" class="ctuarea"/>
		<path id="T4:A1" d="m801.5,652.8,45-53.62-22.98-19.29-45,53.62z" class="ctuarea"/>
		<path id="T4:C1" d="m869.5,618.5,16.07-19.14-45.96-38.57-16.07,19.15,45.96,38.57" class="ctuarea"/>
		<path id="T4:C2" d="m965.2,698.8,16.09-19.16-68.94-57.86-16.07,19.14,68.92,57.88" class="ctuarea"/>
		<path d="m1008,702.2,57.86-68.94-26.81-22.5-57.86,68.94-68.94-57.86,57.86-68.94-26.81-22.5-57.86,68.94-45.96-38.57-61.07,72.77,22.98,19.29,45-53.62,22.98,19.28-28.93,34.47,26.81,22.5,28.93-34.47,22.98,19.28-45,53.62,22.98,19.29,45-53.62,22.98,19.28z" class="big1 wall"/>
	</g>
	<g id="T2">
		<path id="T2:A3" d="m970,794.2,22.97,19.31,45-53.62-22.85-19.2z" class="ctuarea"/>
		<path id="T2:A4" d="m1066,874.5,22.97,19.31,45-53.62-23.1-19.16z" class="fitarea"/>
		<path id="T2:D2" d="m965.3,698.9-25.71,30.64,26.81,22.5,25.71-30.64z" class="ctuarea"/>
		<path id="T2:D3" d="m1061,779.2-28.93,34.47,26.81,22.5,28.93-34.47z" class="fitarea"/>
		<path id="T2:B3" d="m1077,760.1,26.84,22.47,57.86-68.94-26.85-22.47z" class="ctuarea"/>
		<path id="T2:C3" d="m1077,760.1-68.94-57.86-16.07,19.15,68.94,57.85z" class="fitarea"/>
		<path id="T2:C4" d="m1150,821.1-46-38.5-16.1,19.1,46,38.6z" class="ctuarea"/>
		<path d="m1135,691.2-57.84,68.94-68.94-57.84-42.88-3.375-25.72,30.66,26.81,22.5,25.72-30.66,22.97,19.28-45,53.62,22.97,19.28,45.03-53.62,22.97,19.28-28.94,34.47,26.81,22.5,28.94-34.47,22.97,19.28-45,53.62,23,19.28,61.03-72.75-45.94-38.56,57.84-68.94-26.81-22.5z" class="big1 wall"/>
	</g>
	<path id="T2:E1" class="fitarea" d="m1126,543.5,12.02,137.7,30.6-2.677-12.24-137.7-30.38,2.658z"/>
	<path d="m401.2,150.2,83.4-99.72,76.71,64.16-83.4,99.72z" class="big1 area ctuarea"/>
	<g id="TH">
		<path id="TH:D" class="big1 area ctuarea" d="m167.6,476.3,61.36,51.3,224.6-268.4-61.4-51.32-224.6,268.4zm30.75-13.4,25.66-30.7,38.36,32.1-25.67,30.7-38.35-32.1zm160.4-191.7,25.7-30.68,38.3,32.08-25.7,30.64-38.3-32.04z"/>
		<path id="TH:C" d="M312.2,506,446.9,344.9,500.6,389.8,365.9,550.9z" class="big1 area ctuarea"/>
		<path id="TH:A" class="big1 area fitarea" d="m454.6,351.3,32.08-38.35,92.05,76.99-32.08,38.35z"/>
		<path d="m391.6,520.3,25.66-30.68,30.68,25.66-25.66,30.68z" class="big1 area ctuarea"/>
		<path d="m359.5,558.6,25.66-30.68,30.68,25.66-25.66,30.68z" class="big1 area ctuarea"/>
		<path id="TH:B" class="big1 area ctuarea" d="M198,658.2,371.4,451.1,402.1,476.7,228.7,683.8z"/>
		<path d="m273.8,473.9,6.416-7.671,38.35,32.08-6.416,7.671z" class="big1 area ctuarea"/>
		<path d="m402.2,320.5,6.416-7.671,38.35,32.08-6.416,7.671z" class="big1 area ctuarea"/>
	</g>
	<path d="m509.7,332.2,19.25-23.01,7.671,6.416-19.25,23.01z" class="big1 area otherarea"/>
	<g id="T9">
		<path d="m513.7,296.4,76.99-92.05,92.05,76.99-38.49,46.02-46.02-38.49-38.49,46.02z" class="big1 area fitarea"/>
		<path d="m590.6,204.3,22.45-26.85,26.85,22.45-22.45,26.85z" class="big1 area fitarea"/>
		<path d="m621.3,230,22.45-26.85,30.68,25.66-22.45,26.85z" class="big1 area fitarea"/>
		<path d="m655.8,258.9,22.45-26.85,26.85,22.45-22.45,26.85z" class="big1 area fitarea"/>
		<g id="T9-floor1" class="floor">
			<path id="T9-floor1-frame" d="m513,296.2,46.47,38.87,38.87-46.47,46.47,38.87,40.56-48.49-3.031-2.535,13.52-16.16-18.18-15.21-13.52,16.16-4.041-3.38-3.38,4.041-8.082-6.76,20.28-24.25-24.25-20.28-20.28,24.25-8.082-6.76,3.38-4.041-4.041-3.38,15.21-18.18-20.2-16.9-15.21,18.18-3.031-2.535z" class="big1 floorframe"/>
			<path id="T9-105" d="m622.8,236.8,21.97-26.27,24.25,20.28-21.97,26.27z" class="small1 area fitarea"/>
			<path id="T9-107" d="m659.1,267.2,18.59-22.23,10.1,8.451-18.59,22.23z" class="small1 area fitarea"/>
			<path id="T9-111" d="m669.2,275.7,18.59-22.23,8.082,6.76-18.59,22.23z" class="small1 area fitarea"/>
			<path id="T9-155" d="m590.4,209.8,20.3-24.25,20.2,16.9-20.3,24.25z" class="small1 area fitarea"/>
			<path d="m677.3,282.5,5.07-6.061,3.031,2.535-5.07,6.061z" class="small1 area otherarea"/>
			<path d="m557,313.4,16.56-19.8,12.12,10.14-16.56,19.8z" class="small1 area neutralarea"/>
			<path d="m573.6,293.6,2.704-3.233,12.12,10.14-2.704,3.233z" class="small1 area otherarea"/>
			<path d="m547.4,324.9,5.07-6.061,8.082,6.76,1.859-2.223,4.041,3.38-6.929,8.284z" class="small1 area otherarea"/>
			<path d="m534.6,307.3,3.38-4.041,6.061,5.07-3.38,4.041z" class="small1 area otherarea"/>
			<path d="m531.2,311.4,3.38-4.041,6.061,5.07-3.38,4.041z" class="small1 area otherarea"/>
			<path d="m537.3,316.4,6.76-8.082,4.041,3.38-6.76,8.082z" class="small1 area otherarea"/>
			<path d="m541.3,319.8,6.76-8.082,6.061,5.07-6.761,8.082z" class="small1 area otherarea"/>
			<path d="m513,296.2,4.817-5.758,8.082,6.761-4.817,5.758z" class="small1 area otherarea"/>
			<path d="m541.9,261.6,9.972-11.92,12.12,10.14-9.972,11.92z" class="small1 area neutralarea"/>
			<path d="m560.4,239.6,19.4-23.24,12.1,10.14-19.4,23.24z" class="small1 area neutralarea"/>
			<path d="m606.2,271,12.68-15.15,6.061,5.07-12.68,15.15z" class="small1 area neutralarea"/>
			<path d="m618.9,255.9,3.38-4.041,6.062,5.07-3.38,4.041z" class="small1 area otherarea"/>
			<path d="m602.8,275.1,3.38-4.041,6.061,5.07-3.38,4.041z" class="small1 area otherarea"/>
			<path d="m623.7,262.4,4.648-5.556,10.1,8.451-4.648,5.556z" class="small1 area neutralarea"/>
			<path d="m618.6,268.5,5.07-6.061,10.1,8.451-5.07,6.061z" class="small1 area neutralarea"/>
			<path d="m613.5,274.6,5.07-6.061,10.1,8.451-5.07,6.061z" class="small1 area neutralarea"/>
			<path d="m608.9,280.2,4.648-5.556,10.1,8.451-4.648,5.556z" class="small1 area neutralarea"/>
			<path d="m641.2,307.2,19.44-23.24,12.12,10.14-19.44,23.24z" class="small1 area otherarea"/>
			<path d="m670.9,284,3.38-4.041,6.061,5.07-3.38,4.041z" class="small1 area neutralarea"/>
			<path d="m667.9,281.4,3.38-4.041,4.041,3.38-3.38,4.041z" class="small1 area otherarea"/>
			<path d="m657.8,273,3.38-4.041,10.1,8.451-3.38,4.041z" class="small1 area otherarea"/>
			<path d="m651.7,267.9,3.38-4.041,6.061,5.07-3.38,4.041z" class="small1 area neutralarea"/>
			<path d="m655.1,263.9,5.07-6.061,4.041,3.38-5.07,6.061z" class="small1 area otherarea"/>
			<path d="m631.5,251,3.38-4.041,8.082,6.76-3.38,4.041z" class="small1 area otherarea"/>
			<path d="m619.4,240.9,3.38-4.041,4.041,3.38-3.38,4.041z" class="small1 area neutralarea"/>
			<path d="m623.4,244.2,3.38-4.041,8.082,6.76-3.38,4.041z" class="small1 area otherarea"/>
			<path d="m610.6,226.7,5.07-6.061,4.041,3.38-5.07,6.061z" class="small1 area otherarea"/>
			<path d="m587.4,207.2,5.07-6.061,3.031,2.535-5.07,6.061z" class="small1 area otherarea"/>
			<path d="m605.2,229,3.38-4.041,6.062,5.07-3.38,4.041z" class="small1 area neutralarea"/>
			<path d="m584,211.3,3.38-4.041,5.051,4.225-3.38,4.041z" class="small1 area neutralarea"/>
			<path d="m589.1,215.5,3.38-4.041,8.082,6.76-3.38,4.041z" class="small1 area otherarea"/>
			<path d="m597.2,222.3,3.38-4.041,8.082,6.76-3.38,4.041z" class="small1 area otherarea"/>
			<path d="m639.6,257.8,3.38-4.041,4.041,3.38-3.38,4.041z" class="small1 area neutralarea"/>
			<path d="m636.3,320.3,8.451-10.1,8.587,7.183-8.451,10.1-6.567-5.493,6.338-7.577-6.338,7.577z" class="small1 area otherarea"/>
			<path d="m595,247.5c-2.103,2.514-1.769,6.258,0.7444,8.36,1.886,1.578,4.464,1.78,6.522,0.7225l1.364,1.141,2.958-3.536-1.364-1.141c0.6773-2.212,0.0225-4.714-1.863-6.291-2.514-2.103-6.258-1.769-8.36,0.7444z" class="small1 area neutralarea"/>
			<path d="m517.9,290.4,4.817-5.758,8.082,6.76-4.817,5.758z" class="small1 area otherarea"/>
			<path d="m522.7,284.6,4.817-5.758,8.082,6.76-4.817,5.758z" class="small1 area otherarea"/>
			<path d="m527.5,278.9,4.817-5.758,8.082,6.76-4.817,5.758z" class="small1 area otherarea"/>
			<path d="m532.3,273.1,4.817-5.758,8.082,6.76-4.817,5.758z" class="small1 area otherarea"/>
			<path d="m537.1,267.3,4.817-5.758,8.082,6.76-4.817,5.758z" class="small1 area otherarea"/>
			<path d="m554.8,291.6-9.803,11.72-4.142-3.465,9.803-11.72" class="small1 wall"/>
			<g>
				<path d="m598.1,264.3-3.38,4.041-4.041-3.38" class="big1 wall"/>
				<path d="m610.7,249.1,3.38-4.041-4.041-3.38" class="big1 wall"/>
				<path d="m572.5,249.7,4.041,3.38" class="big1 wall"/>
				<path d="m591.9,226.5,4.041,3.38" class="big1 wall"/>
				<path d="m608.2,252.1-6.76,8.082" class="big1 wall"/>
			</g>
			<path d="m619,288.6,4.041,3.38" class="small1 wall"/>
			<path d="m638.4,265.3,4.041,3.38" class="small1 wall"/>
			<path d="m624.5,288.1,14.37-17.17,3.031,2.535-12.68,15.15" class="small1 wall"/>
			<g>
				<path d="m614.3,281.5c-0.1397,0.167-0.1319,0.3332,0.0446,0.4808l1.819,1.521c0.165,0.138,0.3221,0.1259,0.4617-0.041l1.528-1.827c0.1396-0.1669,0.1282-0.3202-0.0411-0.4618l-1.819-1.521c-0.1722-0.144-0.3335-0.1353-0.4775,0.0368,0,0-1.517,1.812-1.516,1.812z" class="smallicon"/>
				<g>
					<path d="m615.5,281c0.0747-0.0893,0.0629-0.2223-0.0265-0.297-0.0893-0.0747-0.2223-0.0629-0.297,0.0264s-0.0629,0.2223,0.0264,0.297,0.2223,0.0629,0.297-0.0264z" class="light"/>
					<path d="m616.5,281.9,0.5601,0.4684c0.1018,0.0851-0.0258,0.2376-0.1275,0.1525l-0.5561-0.4651-0.1713,0.2048-0.5762-0.854-0.0284,0.034,0.3218,0.4856c0.0681,0.1084-0.0776,0.2046-0.1532,0.0916l-0.3472-0.5308c-0.0404-0.0596-0.0784-0.2054,0.0189-0.3216l0.0896-0.1072,0.0965-0.1153c0.0963-0.1152,0.2476-0.1032,0.3145-0.0769l0.5834,0.2476c0.1237,0.0554,0.0586,0.2173-0.0642,0.1661l-0.5336-0.23-0.0308,0.0368,0.9439,0.4145-0.1715,0.2051,0.5568,0.4658c0.101,0.0845-0.0265,0.236-0.127,0.1519l-0.5609-0.4692-0.0378,0.0452z" class="light"/>
				</g>
			</g>
			<g>
				<path d="m629.1,263.8c-0.1397,0.167-0.1319,0.3332,0.0446,0.4808l1.819,1.521c0.165,0.138,0.3221,0.1259,0.4617-0.041l1.528-1.827c0.1396-0.1669,0.1282-0.3202-0.0411-0.4618l-1.819-1.521c-0.1722-0.144-0.3335-0.1353-0.4775,0.0368,0,0-1.517,1.812-1.515,1.812z" class="smallicon"/>
				<path d="m630.3,263.3c0.0762-0.0911,0.0642-0.2268-0.027-0.3031-0.0911-0.0762-0.2268-0.0641-0.303,0.027s-0.0641,0.2268,0.027,0.303,0.2268,0.0642,0.303-0.0269z" class="light"/>
				<path d="m630.2,263.5c-0.0977,0.1169-0.0811,0.2905,0.0378,0.39l0.5067,0.4239c0.0985,0.0824,0.2191-0.0617,0.1206-0.1441l-0.4631-0.3874,0.0285-0.0341,1.268,1.061c0.1317,0.1102,0.2884-0.085,0.1606-0.192l-0.7363-0.6159,0.0277-0.0331,0.7363,0.6159c0.1278,0.1069,0.2931-0.0828,0.1614-0.193l-1.268-1.061,0.0279-0.0333,0.4631,0.3874c0.0992,0.083,0.2192-0.0604,0.1197-0.1431l-0.5035-0.4212c-0.1096-0.0917-0.2881-0.0964-0.3955,0.0319l-0.2918,0.3483z" class="light"/>
			</g>
			<g>
				<path d="m631.3,280.7c-0.1397,0.167-0.1319,0.3332,0.0446,0.4808l1.819,1.521c0.165,0.138,0.3221,0.1259,0.4617-0.041l1.528-1.827c0.1396-0.1669,0.1282-0.3202-0.0411-0.4618l-1.819-1.521c-0.1722-0.144-0.3335-0.1353-0.4775,0.0368,0,0-1.517,1.812-1.515,1.812z" class="smallicon"/>
				<path d="m633,282.1,0.2706-0.3235-0.3293-0.2754,0.2688-0.3214-0.3314-0.2772,0.2731-0.3265-0.3253-0.2721,0.2712-0.3242-0.3232-0.2703,0.4026-0.4813,0.1649,0.1379-0.2677,0.32,0.3244,0.2714-0.2715,0.3246,0.329,0.2752-0.271,0.324,0.3272,0.2737-0.2721,0.3253,0.33,0.2761-0.4043,0.4833-0.1664-0.1392z" class="light"/>
				<path d="m633.8,280.3-0.2393,0.2861c-0.0659,0.0788,0.0528,0.1832,0.1212,0.1014l0.1227-0.1466,0.0456,0.5121c0.0101,0.1135,0.1727,0.1009,0.162-0.0197l-0.0457-0.5051,0.1452,0.1214c0.0784,0.0663,0.1838-0.0534,0.102-0.122l-0.2843-0.2378c-0.0424-0.0355-0.0949-0.031-0.1294,0.0102z" class="light"/>
			</g>
			<g>
				<path d="m608.8,271.6c-0.1397,0.167-0.1319,0.3332,0.0446,0.4808l1.819,1.521c0.165,0.138,0.3221,0.1259,0.4617-0.041l1.528-1.827c0.1396-0.1669,0.1282-0.3202-0.0411-0.4618l-1.819-1.521c-0.1722-0.144-0.3335-0.1353-0.4775,0.0368,0,0-1.517,1.812-1.515,1.812z" class="smallicon"/>
				<g>
					<g>
						<path d="m611,272.9-0.8809-0.7369,0.00012-0.00022c-0.0879-0.0735-0.1043-0.2021-0.0266-0.295l0.7386-0.883c0.0752-0.0899,0.2062-0.1002,0.2951-0.0259l0.8809,0.7369,0.00025,0.00016c0.0939,0.0782,0.0997,0.205,0.0262,0.2929l-0.7396,0.8842,0.00001,0.00001c-0.0735,0.0879-0.2043,0.1022-0.2942,0.027z" class="light"/>
						<path d="m610.3,272,0.7288-0.8712,0.8664,0.7247-0.7288,0.8712l-0.9-0.7z" class="dark"/>
					</g>
					<g>
						<path d="m610,270.7c-0.1161-0.0954,0.0221-0.2632,0.1394-0.1667l0.3475,0.295-0.0348-0.1815c-0.0162-0.1187,0.1696-0.1483,0.1901-0.0169l0.077,0.434c0.006,0.0631-0.0319,0.1076-0.0947,0.1132l-0.4409-0.00095c-0.133,0.003-0.1368-0.187-0.0169-0.1901l0.185,0.004-0.3518-0.29z" class="light"/>
						<path d="m610,271.7c0.1144,0.0973,0.2552-0.0682,0.1394-0.1667l-0.3518-0.29,0.1848,0.002c0.1197-0.005,0.116-0.1931-0.0169-0.1901l-0.441,0.0006c-0.0631,0.006-0.1002,0.0504-0.0946,0.1131l0.0788,0.4341c0.0206,0.1314,0.2082,0.1016,0.1901-0.0169l-0.0367-0.1814,0.3476,0.295z" class="light"/>
					</g>
					<g>
						<g>
							<path d="m611.5,271.6c0.0175,0.0147,0.018,0.039,0.005,0.0545l-0.1632,0.1951c-0.0128,0.0153-0.0372,0.0193-0.0546,0.005l-0.212-0.1774c-0.0243-0.0204-0.0247-0.0538-0.007-0.0751l0.1445-0.1728c0.0194-0.0232,0.0527-0.0254,0.0752-0.007l0.212,0.1774z" class="light"/>
							<g>
								<path d="m611.5,271.7-0.0621,0.0742,0.2867,0.2399c0.0509,0.0426,0.113-0.0317,0.0621-0.0742l-0.3-0.2z" class="light"/>
								<path d="m611.4,271.8-0.0621,0.0742,0.2867,0.2399c0.0505,0.0422,0.1126-0.032,0.0621-0.0742l-0.3-0.2z" class="light"/>
							</g>
							<path d="m611.1,271.5c0.0257-0.0308,0.0217-0.0766-0.009-0.1023-0.0308-0.0257-0.0766-0.0217-0.1023,0.009-0.0257,0.0308-0.0217,0.0766,0.009,0.1023,0.0308,0.0257,0.0766,0.0217,0.1023-0.009z" class="light"/>
						</g>
						<g>
							<path d="m611.3,271.9c0.0176,0.0147,0.018,0.039,0.005,0.0545l-0.1632,0.1951c-0.0128,0.0153-0.0372,0.0193-0.0546,0.005l-0.212-0.1774c-0.0243-0.0204-0.0247-0.0538-0.007-0.0751l0.1445-0.1728c0.0194-0.0232,0.0527-0.0254,0.0752-0.007l0.212,0.1774z" class="light"/>
							<g>
								<path d="m611.2,271.9-0.0621,0.0742,0.2868,0.2399c0.0509,0.0426,0.113-0.0317,0.0621-0.0742l-0.3-0.2z" class="light"/>
								<path d="m611.2,272-0.0621,0.0742,0.2868,0.2399c0.0505,0.0422,0.1126-0.032,0.0621-0.0742l-0.3-0.2z" class="light"/>
							</g>
							<path d="m610.9,271.8c0.0257-0.0308,0.0217-0.0766-0.009-0.1023-0.0308-0.0257-0.0766-0.0217-0.1023,0.009-0.0257,0.0308-0.0217,0.0766,0.009,0.1023,0.0308,0.0257,0.0766,0.0217,0.1023-0.009z" class="light"/>
						</g>
						<g>
							<path d="m611,272.1c0.0175,0.0147,0.018,0.039,0.005,0.0545l-0.1632,0.1951c-0.0128,0.0153-0.0372,0.0193-0.0546,0.005l-0.212-0.1774c-0.0243-0.0204-0.0247-0.0538-0.007-0.0751l0.1445-0.1728c0.0194-0.0232,0.0527-0.0254,0.0752-0.007l0.212,0.1774z" class="light"/>
							<g>
								<path d="m611,272.2-0.0621,0.0742,0.2868,0.2399c0.0509,0.0426,0.113-0.0317,0.0621-0.0742l-0.3-0.2z" class="light"/>
								<path d="m610.9,272.3-0.0621,0.0742,0.2867,0.2399c0.0505,0.0422,0.1126-0.032,0.0621-0.0742l-0.3-0.2z" class="light"/>
							</g>
							<path d="m610.7,272c0.0258-0.0308,0.0217-0.0766-0.009-0.1023-0.0308-0.0257-0.0766-0.0217-0.1023,0.009-0.0257,0.0308-0.0217,0.0766,0.009,0.1023,0.0308,0.0258,0.0766,0.0217,0.1023-0.009z" class="light"/>
						</g>
					</g>
				</g>
			</g>
			<g>
				<path d="m647.4,294.2c-0.1397,0.167-0.1319,0.3332,0.0446,0.4808l1.819,1.521c0.165,0.138,0.3221,0.1259,0.4617-0.041l1.528-1.827c0.1396-0.1669,0.1282-0.3202-0.0411-0.4618l-1.819-1.521c-0.1722-0.144-0.3335-0.1353-0.4775,0.0368,0,0-1.517,1.812-1.515,1.812z" class="smallicon"/>
				<g>
					<path d="m649.1,295.7,0.2706-0.3235-0.3292-0.2754,0.2688-0.3214-0.3315-0.2773,0.2731-0.3265-0.3253-0.2721,0.2712-0.3242-0.3232-0.2703,0.4026-0.4813,0.1649,0.1379-0.2677,0.32,0.3244,0.2714-0.2715,0.3246,0.329,0.2752-0.271,0.324,0.3272,0.2737-0.2721,0.3253,0.33,0.2761-0.4043,0.4833-0.1664-0.1392z" class="light"/>
					<path d="m650.2,294.7,0.2393-0.2861c0.0659-0.0788-0.0528-0.1832-0.1212-0.1014l-0.1227,0.1466-0.0456-0.5121c-0.0101-0.1136-0.1727-0.1009-0.162,0.0197l0.0457,0.5051-0.1452-0.1214c-0.0784-0.0663-0.1838,0.0534-0.102,0.122l0.2843,0.2378c0.0424,0.0355,0.0949,0.031,0.1294-0.0102z" class="light"/>
				</g>
			</g>
			<path d="m642.8,299.1,10.14-12.12,3.031,2.535" class="small1 wall"/>
			<g>
				<path d="m597.7,251.3c-0.1397,0.167-0.1319,0.3332,0.0446,0.4808l1.819,1.521c0.165,0.138,0.3221,0.1259,0.4617-0.041l1.528-1.827c0.1396-0.1669,0.1282-0.3202-0.0411-0.4618l-1.819-1.521c-0.1722-0.144-0.3335-0.1353-0.4775,0.0368,0,0-1.517,1.812-1.515,1.812z" class="smallicon"/>
				<path d="m599.3,252.8,0.2706-0.3235-0.3292-0.2754,0.2688-0.3214-0.3315-0.2773,0.2731-0.3265-0.3253-0.2721,0.2712-0.3242-0.3232-0.2703,0.4026-0.4813,0.1649,0.1379-0.2677,0.32,0.3244,0.2714-0.2715,0.3246,0.329,0.2752-0.271,0.324,0.3272,0.2737-0.2721,0.3253,0.33,0.2761-0.4043,0.4833-0.1664-0.1392z" class="light"/>
			</g>
			<g>
				<path d="m569.4,308.4c-0.1397,0.167-0.1319,0.3332,0.0446,0.4808l1.819,1.521c0.165,0.138,0.3221,0.1259,0.4617-0.041l1.528-1.827c0.1396-0.1669,0.1282-0.3202-0.0411-0.4618l-1.819-1.521c-0.1722-0.144-0.3335-0.1353-0.4775,0.0368,0,0-1.517,1.812-1.515,1.812z" class="smallicon"/>
				<g>
					<path d="m571,308.3c0.062,0.0518,0.0811,0.1638,0.0199,0.237l1.046,0.8748c0.1485,0.1242-0.0208,0.3266-0.1693,0.2024l-1.046-0.8748c-0.0596,0.0713-0.1664,0.0874-0.2487,0.0186l-0.5754-0.4813c-0.0501-0.0419,0.009-0.116,0.0625-0.0708l0.4255,0.3559,0.0507-0.0606-0.4296-0.3593c-0.0461-0.0385,0.009-0.1107,0.0602-0.0681l0.4275,0.3576,0.0524-0.0626-0.4288-0.3586c-0.0481-0.0402,0.007-0.1095,0.0586-0.0661l0.4271,0.3573,0.0515-0.0616-0.4288-0.3586c-0.0476-0.0398,0.01-0.1121,0.0611-0.0691l0.5834,0.4874z" class="light"/>
					<path d="m571,307.4,1.624,1.359c0.1452,0.1214-0.0266,0.3224-0.1696,0.2028l-0.6445-0.5392-0.0903,0.108-0.9799-0.8197c-0.2281-0.1908,0.0318-0.5016,0.2599-0.3108z" class="light"/>
				</g>
			</g>
			<g>
				<path d="m593.6,300.4c0.1397-0.167,0.3046-0.1887,0.4811-0.0411l1.819,1.521c0.165,0.138,0.1809,0.2948,0.0413,0.4617l-1.528,1.827c-0.1396,0.1669-0.2925,0.1828-0.4618,0.0411l-1.819-1.521c-0.1721-0.144-0.1921-0.3044-0.0481-0.4765,0,0,1.515-1.813,1.515-1.812z" class="smallicon"/>
				<path d="m594.9,302-1.03-0.8613-0.8613,1.03,0.0555,0.6237,0.6551-0.7831,0.1258,1.413,0.4577-0.0408-0.1254-1.409,0.7791,0.6517-0.0567-0.6247z" class="light"/>
			</g>
			<path d="m551.4,315.4a1.367,1.367,0,0,0,0.579,-0.4068l-1.049-0.8772z" class="small2 door"/>
			<path d="m637.2,303.8,4.041,3.38" class="small1 wall"/>
			<path d="m656.6,280.6,4.041,3.38" class="small1 wall"/>
			<path d="m628.1,296.2,4.041,3.38" class="small1 wall"/>
			<path d="m647.5,272.9,4.041,3.38" class="small1 wall"/>
			<path d="m554.2,271.6-3.38,4.041" class="small1 wall"/>
			<path d="m545.9,281.6-3.38,4.041" class="small1 wall"/>
			<path d="m537.8,291.1-4.648,5.556" class="small1 wall"/>
			<path d="m534.7,294.7,4.041,3.38" class="small1 wall"/>
			<path d="m553,310,4.041,3.38" class="small1 wall"/>
			<path d="m526.9,304.3-1.69,2.021" class="small1 wall"/>
			<path d="m552.5,318.8,4.563-5.455,12.12,10.14-2.704,3.233-4.041-3.38-1.859,2.223z" class="small1 area otherarea"/>
			<g>
				<path d="m552.8,325.8c-0.1397,0.167-0.1319,0.3332,0.0446,0.4808l1.819,1.521c0.165,0.138,0.3221,0.1259,0.4617-0.041l1.528-1.827c0.1396-0.1669,0.1282-0.3202-0.0411-0.4618l-1.819-1.521c-0.1722-0.144-0.3335-0.1353-0.4775,0.0368,0,0-1.517,1.812-1.515,1.812z" class="smallicon"/>
				<path d="m554.5,327.3,0.2706-0.3235-0.3292-0.2754,0.2688-0.3214-0.3315-0.2773,0.2731-0.3265-0.3253-0.2721,0.2712-0.3242-0.3232-0.2703,0.4026-0.4813,0.1649,0.1379-0.2677,0.32,0.3244,0.2714-0.2715,0.3246,0.329,0.2752-0.271,0.324,0.3272,0.2737-0.2721,0.3253,0.33,0.2761-0.4043,0.4833-0.1664-0.1392z" class="light"/>
			</g>
			<g>
				<path d="m643.9,319.5c-0.1397,0.167-0.1319,0.3332,0.0446,0.4808l1.819,1.521c0.165,0.138,0.3221,0.1259,0.4617-0.041l1.528-1.827c0.1396-0.1669,0.1282-0.3202-0.0411-0.4618l-1.819-1.521c-0.1722-0.144-0.3335-0.1353-0.4775,0.0368,0,0-1.517,1.812-1.515,1.812z" class="smallicon"/>
				<path d="m645.5,321,0.2706-0.3235-0.3292-0.2754,0.2688-0.3214-0.3315-0.2773,0.2731-0.3265-0.3253-0.2721,0.2712-0.3242-0.3232-0.2703,0.4026-0.4813,0.1649,0.1379-0.2677,0.32,0.3244,0.2714-0.2715,0.3246,0.329,0.2752-0.271,0.324,0.3272,0.2737-0.2721,0.3253,0.33,0.2761-0.4043,0.4833-0.1664-0.1392z" class="light"/>
			</g>
			<g>
				<path d="m612,267.8c-0.1397,0.167-0.1319,0.3332,0.0446,0.4808l1.819,1.521c0.165,0.138,0.3221,0.1259,0.4617-0.041l1.528-1.827c0.1396-0.1669,0.1282-0.3202-0.0411-0.4618l-1.819-1.521c-0.1722-0.144-0.3335-0.1353-0.4775,0.0368,0,0-1.517,1.812-1.515,1.812z" class="smallicon"/>
				<g>
					<g>
						<path d="m614.2,269.1-0.8809-0.7369,0.00012-0.00022c-0.0879-0.0735-0.1043-0.2021-0.0266-0.295l0.7386-0.883c0.0752-0.0899,0.2062-0.1002,0.2951-0.0259l0.8809,0.7369,0.00025,0.00016c0.0939,0.0783,0.0997,0.205,0.0262,0.2929l-0.7396,0.8842,0.00001,0.00001c-0.0735,0.0879-0.2043,0.1022-0.2942,0.027z" class="light"/>
						<path d="m613.5,268.2,0.7288-0.8712,0.8664,0.7247-0.7288,0.8712l-0.9-0.7z" class="dark"/>
					</g>
					<g>
						<path d="m613.2,266.8c-0.1161-0.0954,0.0221-0.2632,0.1394-0.1667l0.3475,0.295-0.0348-0.1815c-0.0162-0.1187,0.1696-0.1483,0.1901-0.0169l0.077,0.434c0.006,0.0631-0.0319,0.1076-0.0947,0.1132l-0.4409-0.00095c-0.133,0.003-0.1368-0.187-0.0169-0.1901l0.185,0.004-0.3518-0.29z" class="light"/>
						<path d="m613.2,267.9c0.1144,0.0973,0.2552-0.0682,0.1394-0.1667l-0.3518-0.29,0.1848,0.002c0.1197-0.005,0.116-0.1931-0.0169-0.1901l-0.441,0.0006c-0.0631,0.006-0.1002,0.0504-0.0946,0.1131l0.0788,0.4341c0.0206,0.1314,0.2082,0.1016,0.1901-0.0169l-0.0367-0.1814,0.3476,0.295z" class="light"/>
					</g>
					<g>
						<g>
							<path d="m614.7,267.8c0.0176,0.0147,0.018,0.039,0.005,0.0545l-0.1632,0.1951c-0.0128,0.0153-0.0372,0.0193-0.0546,0.005l-0.212-0.1774c-0.0243-0.0204-0.0247-0.0538-0.007-0.0751l0.1445-0.1728c0.0194-0.0232,0.0527-0.0254,0.0752-0.007l0.212,0.1774z" class="light"/>
							<g>
								<path d="m614.7,267.8-0.0621,0.0742,0.2867,0.2399c0.0509,0.0426,0.113-0.0317,0.0621-0.0742l-0.3-0.2z" class="light"/>
								<path d="m614.6,267.9-0.0621,0.0742,0.2867,0.2399c0.0505,0.0422,0.1126-0.032,0.0621-0.0742l-0.3-0.2z" class="light"/>
							</g>
							<path d="m614.3,267.7c0.0257-0.0308,0.0217-0.0766-0.009-0.1023-0.0308-0.0257-0.0766-0.0217-0.1023,0.009-0.0257,0.0308-0.0217,0.0766,0.009,0.1023,0.0308,0.0257,0.0766,0.0217,0.1023-0.009z" class="light"/>
						</g>
						<g>
							<path d="m614.5,268c0.0176,0.0147,0.018,0.039,0.005,0.0545l-0.1632,0.1951c-0.0128,0.0153-0.0372,0.0193-0.0546,0.005l-0.212-0.1774c-0.0243-0.0204-0.0247-0.0538-0.007-0.0751l0.1445-0.1728c0.0194-0.0232,0.0527-0.0254,0.0752-0.007l0.212,0.1774z" class="light"/>
							<g>
								<path d="m614.5,268.1-0.0621,0.0742,0.2868,0.2399c0.0509,0.0426,0.113-0.0317,0.0621-0.0742l-0.3-0.2z" class="light"/>
								<path d="m614.4,268.2-0.0621,0.0742,0.2868,0.2399c0.0505,0.0422,0.1126-0.032,0.0621-0.0742l-0.3-0.2z" class="light"/>
							</g>
							<path d="m614.1,267.9c0.0257-0.0308,0.0217-0.0766-0.009-0.1023-0.0308-0.0257-0.0766-0.0217-0.1023,0.009-0.0257,0.0308-0.0217,0.0766,0.009,0.1023,0.0308,0.0257,0.0766,0.0217,0.1023-0.009z" class="light"/>
						</g>
						<g>
							<path d="m614.2,268.3c0.0176,0.0147,0.018,0.039,0.005,0.0545l-0.1632,0.1951c-0.0128,0.0153-0.0372,0.0193-0.0546,0.005l-0.212-0.1774c-0.0243-0.0204-0.0247-0.0538-0.007-0.0751l0.1445-0.1728c0.0194-0.0232,0.0527-0.0254,0.0752-0.007l0.212,0.1774z" class="light"/>
							<g>
								<path d="m614.2,268.4-0.0621,0.0742,0.2868,0.2399c0.0509,0.0426,0.113-0.0317,0.0621-0.0742l-0.3-0.2z" class="light"/>
								<path d="m614.2,268.5-0.0621,0.0742,0.2867,0.2399c0.0505,0.0422,0.1126-0.032,0.0621-0.0742l-0.3-0.2z" class="light"/>
							</g>
							<path d="m613.9,268.2c0.0258-0.0308,0.0217-0.0766-0.009-0.1023-0.0308-0.0257-0.0766-0.0217-0.1023,0.009-0.0257,0.0308-0.0217,0.0766,0.009,0.1023,0.0308,0.0257,0.0766,0.0217,0.1023-0.009z" class="light"/>
						</g>
					</g>
				</g>
			</g>
			<g>
				<path d="m615.2,264c-0.1397,0.167-0.1319,0.3332,0.0446,0.4808l1.819,1.521c0.165,0.138,0.3221,0.1259,0.4617-0.041l1.528-1.827c0.1396-0.1669,0.1282-0.3202-0.0411-0.4618l-1.819-1.521c-0.1722-0.144-0.3335-0.1353-0.4775,0.0368,0,0-1.517,1.812-1.515,1.812z" class="smallicon"/>
				<g>
					<g>
						<path d="m617.4,265.3-0.8809-0.7369,0.00012-0.00022c-0.0879-0.0735-0.1043-0.2021-0.0266-0.295l0.7386-0.883c0.0752-0.0899,0.2062-0.1002,0.2951-0.0259l0.8809,0.7369,0.00025,0.00016c0.0939,0.0782,0.0997,0.205,0.0262,0.2929l-0.7396,0.8842,0.00001,0.00001c-0.0735,0.0879-0.2043,0.1022-0.2942,0.027z" class="light"/>
						<path d="m616.6,264.4,0.7288-0.8712,0.8664,0.7247-0.7288,0.8712l-0.9-0.7z" class="dark"/>
					</g>
					<g>
						<path d="m616.3,263.1c-0.1161-0.0954,0.0221-0.2632,0.1394-0.1667l0.3475,0.295-0.0348-0.1815c-0.0162-0.1187,0.1696-0.1483,0.1901-0.0169l0.077,0.434c0.006,0.0631-0.0319,0.1076-0.0947,0.1132l-0.4409-0.00095c-0.133,0.003-0.1368-0.187-0.0169-0.1901l0.185,0.004-0.3518-0.29z" class="light"/>
						<path d="m616.4,264.1c0.1144,0.0973,0.2552-0.0682,0.1394-0.1667l-0.3518-0.29,0.1848,0.002c0.1197-0.005,0.116-0.1931-0.0169-0.1901l-0.441,0.0006c-0.0631,0.006-0.1002,0.0504-0.0946,0.1131l0.0788,0.4341c0.0206,0.1314,0.2082,0.1016,0.1901-0.0169l-0.0367-0.1814,0.3476,0.295z" class="light"/>
					</g>
					<g>
						<g>
							<path d="m617.8,264c0.0176,0.0147,0.018,0.039,0.005,0.0545l-0.1632,0.1951c-0.0128,0.0153-0.0372,0.0193-0.0546,0.005l-0.212-0.1774c-0.0243-0.0204-0.0247-0.0538-0.007-0.0751l0.1445-0.1728c0.0194-0.0232,0.0527-0.0254,0.0752-0.007l0.212,0.1774z" class="light"/>
							<g>
								<path d="m617.8,264.1-0.0621,0.0742,0.2867,0.2399c0.0509,0.0426,0.113-0.0317,0.0621-0.0742l-0.3-0.2z" class="light"/>
								<path d="m617.7,264.2-0.0621,0.0742,0.2867,0.2399c0.0505,0.0422,0.1126-0.032,0.0621-0.0742l-0.3-0.2z" class="light"/>
							</g>
							<path d="m617.4,263.9c0.0257-0.0308,0.0217-0.0766-0.009-0.1023-0.0308-0.0257-0.0766-0.0217-0.1023,0.009-0.0257,0.0308-0.0217,0.0766,0.009,0.1023,0.0308,0.0257,0.0766,0.0217,0.1023-0.009z" class="light"/>
						</g>
						<g>
							<path d="m617.6,264.3c0.0176,0.0147,0.018,0.039,0.005,0.0545l-0.1632,0.1951c-0.0128,0.0153-0.0372,0.0193-0.0546,0.005l-0.212-0.1774c-0.0243-0.0204-0.0247-0.0538-0.007-0.0751l0.1445-0.1728c0.0194-0.0232,0.0527-0.0254,0.0752-0.007l0.212,0.1774z" class="light"/>
							<g>
								<path d="m617.6,264.4-0.0621,0.0742,0.2868,0.2399c0.0509,0.0426,0.113-0.0317,0.0621-0.0742l-0.3-0.2z" class="light"/>
								<path d="m617.5,264.4-0.0621,0.0742,0.2868,0.2399c0.0505,0.0422,0.1126-0.032,0.0621-0.0742l-0.3-0.2z" class="light"/>
							</g>
							<path d="m617.2,264.2c0.0257-0.0308,0.0217-0.0766-0.009-0.1023-0.0308-0.0257-0.0766-0.0217-0.1023,0.009-0.0257,0.0308-0.0217,0.0766,0.009,0.1023,0.0308,0.0257,0.0766,0.0217,0.1023-0.009z" class="light"/>
						</g>
						<g>
							<path d="m617.4,264.6c0.0176,0.0147,0.018,0.039,0.005,0.0545l-0.1632,0.1951c-0.0128,0.0153-0.0372,0.0193-0.0546,0.005l-0.212-0.1774c-0.0243-0.0204-0.0247-0.0538-0.007-0.0751l0.1445-0.1728c0.0194-0.0232,0.0527-0.0254,0.0752-0.007l0.212,0.1774z" class="light"/>
							<g>
								<path d="m617.4,264.6-0.0621,0.0742,0.2868,0.2399c0.0509,0.0426,0.113-0.0317,0.0621-0.0742l-0.3-0.2z" class="light"/>
								<path d="m617.3,264.7-0.0621,0.0742,0.2867,0.2399c0.0505,0.0422,0.1126-0.032,0.0621-0.0742l-0.3-0.2z" class="light"/>
							</g>
							<path d="m617,264.5c0.0258-0.0308,0.0217-0.0766-0.009-0.1023-0.0308-0.0257-0.0766-0.0217-0.1023,0.009-0.0257,0.0308-0.0217,0.0766,0.009,0.1023,0.0308,0.0258,0.0766,0.0217,0.1023-0.009z" class="light"/>
						</g>
					</g>
				</g>
			</g>
			<g>
				<path d="m618.4,260.2c-0.1397,0.167-0.1319,0.3332,0.0446,0.4808l1.819,1.521c0.165,0.138,0.3221,0.1259,0.4617-0.041l1.528-1.827c0.1396-0.1669,0.1282-0.3202-0.0411-0.4618l-1.819-1.521c-0.1722-0.144-0.3335-0.1353-0.4775,0.0368,0,0-1.517,1.812-1.515,1.812z" class="smallicon"/>
				<g>
					<g>
						<path d="m620.6,261.5-0.8809-0.7369,0.00012-0.00022c-0.0879-0.0735-0.1043-0.2021-0.0266-0.295l0.7386-0.883c0.0752-0.0899,0.2062-0.1002,0.2951-0.0259l0.8809,0.7369,0.00025,0.00016c0.0939,0.0782,0.0997,0.205,0.0262,0.2929l-0.7396,0.8842,0.00001,0.00001c-0.0735,0.0879-0.2043,0.1022-0.2942,0.027z" class="light"/>
						<path d="m619.8,260.6,0.7288-0.8712,0.8664,0.7247-0.7288,0.8712l-0.9-0.7z" class="dark"/>
					</g>
					<g>
						<path d="m619.5,259.2c-0.1161-0.0954,0.0221-0.2632,0.1394-0.1667l0.3475,0.295-0.0348-0.1815c-0.0162-0.1187,0.1696-0.1483,0.1901-0.0169l0.077,0.434c0.006,0.0631-0.0319,0.1076-0.0947,0.1132l-0.4409-0.00095c-0.133,0.003-0.1368-0.187-0.0169-0.1901l0.185,0.004-0.3518-0.29z" class="light"/>
						<path d="m619.6,260.3c0.1144,0.0973,0.2552-0.0682,0.1394-0.1667l-0.3518-0.29,0.1848,0.002c0.1197-0.005,0.116-0.1931-0.0169-0.1901l-0.441,0.0006c-0.0631,0.006-0.1002,0.0504-0.0946,0.1131l0.0788,0.4341c0.0206,0.1314,0.2082,0.1016,0.1901-0.0169l-0.0367-0.1814,0.3476,0.295z" class="light"/>
					</g>
					<g>
						<g>
							<path d="m621,260.2c0.0176,0.0147,0.018,0.039,0.005,0.0545l-0.1632,0.1951c-0.0128,0.0153-0.0372,0.0193-0.0546,0.005l-0.212-0.1774c-0.0243-0.0204-0.0247-0.0538-0.007-0.0751l0.1445-0.1728c0.0194-0.0232,0.0527-0.0254,0.0752-0.007l0.212,0.1774z" class="light"/>
							<g>
								<path d="m621,260.3-0.0621,0.0742,0.2867,0.2399c0.0509,0.0426,0.113-0.0317,0.0621-0.0742l-0.3-0.2z" class="light"/>
								<path d="m620.9,260.3-0.0621,0.0742,0.2867,0.2399c0.0505,0.0422,0.1126-0.032,0.0621-0.0742l-0.3-0.2z" class="light"/>
							</g>
							<path d="m620.7,260.1c0.0257-0.0308,0.0217-0.0766-0.009-0.1023-0.0308-0.0257-0.0766-0.0217-0.1023,0.009-0.0257,0.0308-0.0217,0.0766,0.009,0.1023,0.0308,0.0257,0.0766,0.0217,0.1023-0.009z" class="light"/>
						</g>
						<g>
							<path d="m620.8,260.5c0.0176,0.0147,0.018,0.039,0.005,0.0545l-0.1632,0.1951c-0.0128,0.0153-0.0372,0.0193-0.0546,0.005l-0.212-0.1774c-0.0243-0.0204-0.0247-0.0538-0.007-0.0751l0.1445-0.1728c0.0194-0.0232,0.0527-0.0254,0.0752-0.007l0.212,0.1774z" class="light"/>
							<g>
								<path d="m620.8,260.5-0.0621,0.0742,0.2868,0.2399c0.0509,0.0426,0.113-0.0317,0.0621-0.0742l-0.3-0.2z" class="light"/>
								<path d="m620.7,260.6-0.0621,0.0742,0.2868,0.2399c0.0505,0.0422,0.1126-0.032,0.0621-0.0742l-0.3-0.2z" class="light"/>
							</g>
							<path d="m620.4,260.4c0.0257-0.0308,0.0217-0.0766-0.009-0.1023-0.0308-0.0257-0.0766-0.0217-0.1023,0.009-0.0257,0.0308-0.0217,0.0766,0.009,0.1023,0.0308,0.0257,0.0766,0.0217,0.1023-0.009z" class="light"/>
						</g>
						<g>
							<path d="m620.6,260.7c0.0176,0.0147,0.018,0.039,0.005,0.0545l-0.1632,0.1951c-0.0128,0.0153-0.0372,0.0193-0.0546,0.005l-0.212-0.1774c-0.0243-0.0204-0.0247-0.0538-0.007-0.0751l0.1445-0.1728c0.0194-0.0232,0.0527-0.0254,0.0752-0.007l0.212,0.1774z" class="light"/>
							<g>
								<path d="m620.6,260.8-0.0621,0.0742,0.2868,0.2399c0.0509,0.0426,0.113-0.0317,0.0621-0.0742l-0.3-0.2z" class="light"/>
								<path d="m620.5,260.9-0.0621,0.0742,0.2867,0.2399c0.0505,0.0422,0.1126-0.032,0.0621-0.0742l-0.3-0.2z" class="light"/>
							</g>
							<path d="m620.2,260.6c0.0258-0.0308,0.0217-0.0766-0.009-0.1023-0.0308-0.0257-0.0766-0.0217-0.1023,0.009-0.0257,0.0308-0.0217,0.0766,0.009,0.1023,0.0308,0.0258,0.0766,0.0217,0.1023-0.009z" class="light"/>
						</g>
					</g>
				</g>
			</g>
			<g>
				<path d="m598.4,290.3a2.319,2.319,0,0,0,-0.6862,-0.9861l-1.488,1.779z" class="small2 door"/>
				<path d="m590.2,300.1a2.319,2.319,0,0,1,-1.092,-0.5012l1.488-1.779z" class="small2 door"/>
				<g>
					<path d="m593.1,291.2c1.811-0.1614,3.41,1.176,3.572,2.988l-3.287,0.2898z" class="small2 door"/>
					<path d="m590.1,294.8c-0.1611-1.811,1.176-3.41,2.988-3.572l0.2862,3.279z" class="small2 door"/>
					<path d="m593.7,297.8c-1.811,0.1614-3.41-1.176-3.572-2.988l3.287-0.2898z" class="small2 door"/>
					<path d="m596.7,294.2c0.1611,1.811-1.176,3.41-2.988,3.572l-0.2862-3.279z" class="small2 door"/>
				</g>
			</g>
			<path d="m551.9,315.8a1.367,1.367,0,0,1,0.2981,-0.6418l1.049,0.8771z" class="small2 door"/>
			<path d="m544.8,323.6a1.367,1.367,0,0,0,0.5791,-0.4068l-1.049-0.8772z" class="small2 door"/>
			<path d="m545.3,324a1.367,1.367,0,0,1,0.2981,-0.6418l1.049,0.8771z" class="small2 door"/>
			<path d="m542.2,307.7a1.367,1.367,0,0,1,0.2981,-0.6418l1.049,0.8772z" class="small2 door"/>
			<path d="m538.8,311.7a1.367,1.367,0,0,1,0.2981,-0.6418l1.049,0.8771z" class="small2 door"/>
			<path d="m524.2,298.1a1.367,1.367,0,0,0,0.4068,0.579l0.8771-1.049z" class="small2 door"/>
			<path d="m526.6,295.3a1.367,1.367,0,0,1,0.6418,0.2981l-0.8772,1.049z" class="small2 door"/>
			<path d="m531.4,289.6a1.367,1.367,0,0,1,0.6418,0.2981l-0.8772,1.049z" class="small2 door"/>
			<path d="m536.2,283.8a1.367,1.367,0,0,1,0.6418,0.2981l-0.8772,1.049z" class="small2 door"/>
			<path d="m541.1,278a1.367,1.367,0,0,1,0.6418,0.2981l-0.8771,1.049z" class="small2 door"/>
			<path d="m545.9,272.3a1.367,1.367,0,0,1,0.6418,0.2981l-0.8772,1.049z" class="small2 door"/>
			<path d="m554.7,269.9a1.367,1.367,0,0,1,0.6418,0.2981l-0.8772,1.049z" class="small2 door"/>
			<path d="m640.3,255.9a1.367,1.367,0,0,1,0.6418,0.2981l-0.8772,1.049z" class="small2 door"/>
			<path d="m605.9,227.2a1.367,1.367,0,0,1,0.6418,0.2981l-0.8772,1.049z" class="small2 door"/>
			<path d="m589.7,213.6a1.367,1.367,0,0,1,0.6418,0.2981l-0.8772,1.049z" class="small2 door"/>
			<path d="m604.3,255.8a1.367,1.367,0,0,1,0.6418,0.2981l-0.8772,1.049z" class="small2 door"/>
			<path d="m604.7,255.3a1.367,1.367,0,0,0,0.4067,0.579l0.8772-1.049z" class="small2 door"/>
			<path d="m625.3,280a1.367,1.367,0,0,0,0.4068,0.5791l0.8772-1.049z" class="small2 door"/>
			<path d="m631,273.1a1.367,1.367,0,0,1,0.6418,0.2981l-0.8772,1.049z" class="small2 door"/>
			<path d="m571.9,280.2,3.803-4.546,3.536,2.958-3.803,4.546z" class="small1 area otherarea"/>
			<path d="m576.1,281.3a1.367,1.367,0,0,1,0.6418,0.2981l-0.8772,1.049z" class="small2 door"/>
			<path d="m565.1,266.7,2.958-3.536,14.14,11.83-2.958,3.536z" class="small1 area otherarea"/>
			<path d="m579.9,276.7a1.367,1.367,0,0,1,0.6418,0.2981l-0.8772,1.049z" class="small2 door"/>
			<path d="m558,275,1.111,0.9296,1.099-1.313-1.01-0.845,0.8451-1.01,6.567,5.493-1.944,2.324z" class="small1 area otherarea"/>
			<path d="m560.1,272.8,2.535-3.031,6.567,5.493-2.535,3.031z" class="small1 area otherarea"/>
			<path d="m562.6,269.8,2.535-3.031,6.567,5.493-2.535,3.031z" class="small1 area otherarea"/>
			<path d="m567.9,276.8,3.803-4.546,4.041,3.38-3.803,4.546z" class="small1 area otherarea"/>
			<path d="m573.6,279.2a1.367,1.367,0,0,0,-0.4068,-0.5791l-0.8772,1.049z" class="small2 door"/>
			<path d="m562.6,270.8a1.367,1.367,0,0,0,-0.4068,-0.5791l-0.8771,1.049z" class="small2 door"/>
			<path d="m563.7,269.5a1.367,1.367,0,0,1,-0.6418,-0.2981l0.8772-1.049z" class="small2 door"/>
			<path d="m564.7,280.6,3.211-3.839,7.577,6.338-2.107,2.518-1.016-0.8378-1.099,1.313,1.111,0.9295z" class="small1 area otherarea"/>
			<path d="m559.6,274.3a1.367,1.367,0,0,1,0.6418,0.2981l-0.8772,1.049z" class="small2 door"/>
			<path d="m572.8,285.4a1.367,1.367,0,0,0,-0.4068,-0.5791l-0.8772,1.049z" class="small2 door"/>
			<path d="m556.4,315.2a1.367,1.367,0,0,1,-0.6418,-0.2981l0.8772-1.049z" class="small2 door"/>
			<path d="m568.5,325.4a1.367,1.367,0,0,1,-0.6418,-0.2981l0.8772-1.049z" class="small2 door"/>
			<path d="m568.1,325.9a1.367,1.367,0,0,0,-0.4068,-0.5791l-0.8772,1.049z" class="small2 door"/>
			<g>
				<path d="m545.9,295.6c-0.1397,0.167-0.1319,0.3332,0.0446,0.4808l1.819,1.521c0.165,0.138,0.3221,0.1259,0.4617-0.041l1.528-1.827c0.1396-0.1669,0.1282-0.3202-0.0411-0.4618l-1.819-1.521c-0.1722-0.144-0.3335-0.1353-0.4775,0.0368,0,0-1.517,1.812-1.515,1.812z" class="smallicon"/>
				<g>
					<path d="m547.6,297,0.2706-0.3235-0.3293-0.2754,0.2688-0.3214-0.3314-0.2772,0.2731-0.3265-0.3253-0.2721,0.2712-0.3242-0.3232-0.2703,0.4026-0.4813,0.1649,0.1379-0.2677,0.32,0.3244,0.2714-0.2715,0.3246,0.329,0.2752-0.271,0.324,0.3272,0.2737-0.2721,0.3253,0.33,0.2761-0.4043,0.4833-0.1664-0.1392z" class="light"/>
					<path d="m548.4,295.3-0.2393,0.2861c-0.0659,0.0788,0.0528,0.1832,0.1212,0.1014l0.1227-0.1466,0.0456,0.5121c0.0101,0.1135,0.1727,0.1009,0.162-0.0197l-0.0457-0.5051,0.1452,0.1214c0.0784,0.0663,0.1838-0.0534,0.102-0.122l-0.2843-0.2378c-0.0424-0.0355-0.0949-0.031-0.1294,0.0103z" class="light"/>
				</g>
			</g>
			<g>
				<path d="m551,260.6c-0.1397,0.167-0.1319,0.3332,0.0446,0.4808l1.819,1.521c0.165,0.138,0.3221,0.1259,0.4617-0.041l1.528-1.827c0.1396-0.1669,0.1282-0.3202-0.0411-0.4618l-1.819-1.521c-0.1722-0.144-0.3335-0.1353-0.4775,0.0368,0,0-1.517,1.812-1.515,1.812z" class="smallicon"/>
				<g>
					<path d="m552.5,261.8c-0.0196,0.1188,0.0683,0.2168,0.1434,0.2502,0.0728,0.0324,0.1922,0.0321,0.281-0.074l0.0002-0.00024,1.26-1.507c0.0995-0.1189,0.0767-0.2301,0.0318-0.296-0.0462-0.068-0.1401-0.1465-0.2738-0.102l-1.139,0.404-0.0802-0.0671c-0.091-0.0761-0.2134-0.01-0.2134-0.01-0.085,0.038-0.1477-0.0241-0.1477-0.0241-0.0792-0.0662-0.0453-0.1585-0.0189-0.1901,0.0444-0.0531,0.1174-0.0806,0.1894-0.0297,0.1129,0.0797,0.1861-0.0624,0.1013-0.1334-0.0802-0.0671-0.282-0.1116-0.4216,0.0552-0.1508,0.1803-0.0178,0.3796,0.0379,0.4262,0.042,0.0351,0.0864,0.061,0.1524,0.0721,0.1122,0.0189,0.1978-0.0595,0.2477-0.0177l0.0499,0.0417-0.2016,1.202z" class="light"/>
					<path d="m552.9,260.6,1.111-0.4c0.0749-0.0198,0.1176,0.0606,0.0738,0.1132l-1.26,1.507c-0.0389,0.0506-0.133,0.0236-0.1227-0.0504l0.1988-1.17z" class="dark"/>
				</g>
			</g>
			<path d="m571,247.6a1.367,1.367,0,0,1,-0.2981,0.6419l-1.049-0.8772z" class="small2 door"/>
			<path d="m571.5,248a1.367,1.367,0,0,0,-0.579,0.4068l1.049,0.8772z" class="small2 door"/>
			<path d="m589.6,225.4a1.367,1.367,0,0,0,0.5791,-0.4068l-1.049-0.8771z" class="small2 door"/>
			<path d="m590.1,225.8a1.367,1.367,0,0,1,0.2981,-0.6418l1.049,0.8772z" class="small2 door"/>
			<path d="m660,285.8a1.367,1.367,0,0,1,-0.6418,-0.2981l0.8772-1.049z" class="small2 door"/>
			<path d="m642.9,306.2a1.367,1.367,0,0,0,-0.4068,-0.579l-0.8772,1.049z" class="small2 door"/>
			<path d="m672.7,284.9a1.367,1.367,0,0,1,-0.6418,-0.2981l0.8772-1.049z" class="small2 door"/>
			<path d="m676.3,282.5a1.367,1.367,0,0,0,0.579,-0.4068l-1.049-0.8771z" class="small2 door"/>
			<path d="m671.8,285.6a1.367,1.367,0,0,1,0.2981,-0.6418l1.049,0.8772z" class="small2 door"/>
			<path d="m657,273.2a1.367,1.367,0,0,0,0.5791,-0.4068l-1.049-0.8772z" class="small2 door"/>
			<path d="m659.3,268.3a1.367,1.367,0,0,1,0.2981,-0.6418l1.049,0.8772z" class="small2 door"/>
			<path d="m664.1,279.1a1.367,1.367,0,0,0,0.579,-0.4068l-1.049-0.8772z" class="small2 door"/>
			<path d="m664.6,279.5a1.367,1.367,0,0,1,0.2981,-0.6418l1.049,0.8771z" class="small2 door"/>
			<path d="m625,239.5a1.367,1.367,0,0,1,0.2981,-0.6418l1.049,0.8772z" class="small2 door"/>
			<path d="m639.5,258.6a1.367,1.367,0,0,1,0.2981,-0.6418l1.049,0.8772z" class="small2 door"/>
			<path d="m605.2,229.8a1.367,1.367,0,0,1,0.2981,-0.6418l1.049,0.8772z" class="small2 door"/>
			<path d="m590.6,210.8a1.367,1.367,0,0,1,0.2981,-0.6418l1.049,0.8772z" class="small2 door"/>
			<path d="m644,255.4a1.367,1.367,0,0,0,0.5791,-0.4068l-1.049-0.8772z" class="small2 door"/>
			<path d="m622.7,244.5a1.367,1.367,0,0,0,0.5791,-0.4068l-1.049-0.8772z" class="small2 door"/>
			<path d="m609.6,226.7a1.367,1.367,0,0,0,0.5791,-0.4068l-1.049-0.8772z" class="small2 door"/>
			<path d="m588.3,215.7a1.367,1.367,0,0,0,0.5791,-0.4068l-1.049-0.8772z" class="small2 door"/>
			<path d="m633.2,250a1.367,1.367,0,0,0,-0.4068,-0.579l-0.8771,1.049z" class="small2 door"/>
			<path d="m623.2,253.5a1.367,1.367,0,0,0,0.5791,-0.4068l-1.049-0.8772z" class="small2 door"/>
			<path d="m607.9,278.4a1.367,1.367,0,0,0,-0.5791,0.4068l1.049,0.8771z" class="small2 door"/>
			<path d="m627.2,266.3a1.367,1.367,0,0,0,0.5791,-0.4068l-1.049-0.8771z" class="small2 door"/>
			<path d="m617.9,277.3a1.367,1.367,0,0,1,-0.2981,0.6418l-1.049-0.8772z" class="small2 door"/>
			<path d="m572.9,295.4a1.367,1.367,0,0,1,-0.6418,-0.2981l0.8772-1.049z" class="small2 door"/>
			<path d="m632.7,317.3,8.451-10.1,3.536,2.958-8.451,10.1z" class="small1 area otherarea"/>
			<path d="m636.2,321.1a1.367,1.367,0,0,1,0.2981,-0.6418l1.049,0.8772z" class="small2 door"/>
			<g>
				<path d="m633.8,319.1a1.367,1.367,0,0,0,0.5809,-0.407l-1.049-0.8772z" class="small2 door"/>
				<path d="m634.3,319.5a1.367,1.367,0,0,1,0.298,-0.6436l1.049,0.8772z" class="small2 door"/>
			</g>
			<path d="m640.5,309a1.367,1.367,0,0,1,-0.6418,-0.2981l0.8772-1.049z" class="small2 door"/>
			<path d="m566.7,327.5a1.367,1.367,0,0,0,-0.4068,-0.5791l-0.8772,1.049z" class="small2 door"/>
		</g>
		<g id="T9-floor3" class="floor">
			<path id="T9-floor3-frame" class="big1 floorframe" d="m513,296,46.41,38.87,38.87-46.41,46.41,38.87,38.87-46.41-92.83-77.77z"/>
			<path d="m547.9,325.2,7.605-9.082,2.991,2.505-2.5,3.057,8.576,7.181-5.072,6.051z" class="small1 area ctuarea"/>
			<path d="m606.1,271,13.52-16.14,6.051,5.072-13.52,16.14z" class="small1 area neutralarea"/>
			<path d="m619.6,286.7,15.72-18.76,2.522,2.113-13.52,16.14" class="small1 wall"/>
			<path d="m577.8,251.5,15.63-18.66,18.16,15.21-15.63,18.66z" class="small1 wall"/>
			<path d="m624.3,286.2,13.52-16.14s17.39,14.57,20.68,17.33l-13.52,16.14z" class="small1 wall"/>
			<path d="m540.6,295.9,17.75-21.18,15.64,13.1-17.75,21.18z" class="small1 wall"/>
			<path id="T9-301" class="small1 area fitarea" d="m615.9,244,9.72-11.6,11.6,9.72-9.72,11.6z"/>
			<path id="T9-302" class="small1 area fitarea" d="m627.5,253.7,9.715-11.6,11.64,9.719-9.715,11.61z"/>
			<path id="T9-303" class="small1 area ctuarea" d="m639.1,263.4,9.72-11.6,11.6,9.72-9.72,11.6z"/>
			<path id="T9-304" class="small1 area ctuarea" d="m650.7,273.1,9.72-11.6,11.6,9.72-9.72,11.6z"/>
			<path id="T9-305" class="small1 area ctuarea" d="m662.3,282.8,9.72-11.6,11.6,9.72-9.72,11.6z"/>
			<path id="T9-311" class="small1 area fitarea" d="m640.3,309.1,5.55,4.648-7.181,8.576-5.55-4.648z"/>
			<path id="T9-322" class="small1 area fitarea" d="m612.2,276,13.52-16.14,9.583,8.029c-2.015,2.406-13.52,16.14-13.52,16.14z"/>
			<path id="T9-351" class="small1 area fitarea" d="m604.3,234.3,9.72-11.6,11.6,9.72-9.72,11.6z"/>
			<path id="T9-350" class="small1 area fitarea" d="m592.7,224.5,9.715-11.6,11.59,9.717-9.715,11.61z"/>
			<path id="T9-349" class="small1 area fitarea" d="m571.3,226.4,19.48-23.2,11.59,9.718-19.43,23.2z"/>
			<path id="T9-348" class="small1 area fitarea" d="m561.6,238,9.72-11.6,11.6,9.72-9.72,11.6z"/>
			<path id="T9-347" class="small1 area fitarea" d="m551.9,249.6,9.72-11.6,11.6,9.72-9.72,11.6z"/>
			<path id="T9-346" class="small1 area fitarea" d="m542.2,261.2,9.72-11.6,11.6,9.72-9.72,11.6z"/>
			<path id="T9-345" class="small1 area fitarea" d="m532.5,272.8,9.72-11.6,11.6,9.72-9.72,11.6z"/>
			<path id="T9-344" class="small1 area fitarea" d="m522.8,284.4,9.72-11.6,11.6,9.72-9.72,11.6z"/>
			<path id="T9-343" class="small1 area fitarea" d="m513,296,9.72-11.6,11.6,9.72-9.72,11.6z"/>
			<path id="T9-306" class="small1 area fitarea" d="m661.7,291.8,4.648-5.55,7.564,6.339-4.648,5.55z"/>
			<path id="T9-307" class="small1 area fitarea" d="m657,297.3,4.648-5.55,7.564,6.339-4.648,5.55z"/>
			<path id="T9-308" class="small1 area fitarea" d="m652.4,302.9,4.648-5.55,7.564,6.339-4.648,5.55z"/>
			<path id="T9-309" class="small1 area fitarea" d="m647.7,308.4,4.648-5.55,7.564,6.339-4.648,5.55z"/>
			<path id="T9-310" class="small1 area ctuarea" d="m644.4,312.5,3.381-4.036,7.564,6.339-10.56,12.61-6.051-5.072,7.181-8.576z"/>
			<path id="T9-312a" class="fitarea" d="m627.5,312.9,6.339-7.564,5.649,4.733-6.339,7.564z"/>
			<path d="m565.5,266.2,2.958-3.531,18.16,15.21-2.958,3.531z" class="small1 area ctuarea"/>
			<path id="T9-312b" class="fitarea" d="m621.6,308,6.339-7.564,5.85,4.9-6.339,7.564z"/>
			<path id="T9-312c" class="fitarea" d="m615.7,303.1,6.339-7.564,5.85,4.9-6.339,7.564z"/>
			<path id="T9-312d" class="fitarea" d="m609.9,298.2,6.339-7.564,5.85,4.9-6.339,7.564z"/>
			<path id="T9-312" class="small1 area fitarea" d="m609.9,298.2,6.339-7.564,23.2,19.44-6.339,7.564z"/>
			<path id="T9-342a" class="fitarea" d="m530.4,310.6,7.605-9.082,5.85,4.9-7.605,9.082z"/>
			<path id="T9-342b" class="fitarea" d="m524.6,305.7,7.605-9.082,5.752,4.819-7.605,9.082z"/>
			<path id="T9-342" class="small1 area fitarea" d="m532.2,296.7,11.6,9.72-7.605,9.082-11.6-9.72z"/>
			<path id="T9-341a" class="fitarea" d="m542,320.3,7.605-9.082,5.85,4.9-7.605,9.082z"/>
			<path id="T9-341b" class="fitarea" d="m536.2,315.5,7.605-9.082,5.752,4.819-7.605,9.082z"/>
			<path id="T9-341" class="small1 area fitarea" d="m543.8,306.4,11.6,9.72-7.605,9.082-11.6-9.72z"/>
			<path id="T9-335" class="small1 area fitarea" d="m556,321.7,5.072-6.051,8.576,7.181-5.072,6.051z"/>
			<path id="T9-334" class="small1 area fitarea" d="m562.5,316.9,9.72-11.6,7.063,5.915-9.72,11.6z"/>
			<path id="T9-333" class="small1 area fitarea" d="m572.2,305.3,9.296-11.1-1.513-1.268,3.381-4.035,8.576,7.181-12.68,15.13z"/>
			<path id="T9-332" class="small1 area fitarea" d="m583.4,288.9,6.339-7.564,8.576,7.181-6.339,7.564z"/>
			<path id="T9-364" class="small1 area fitarea" d="m558.3,274.7,7.181-8.576,18.16,15.21-7.181,8.576z"/>
			<path id="T9-330" class="small1 area ctuarea" d="m593.5,276.8,3.381-4.035,8.576,7.181-3.381,4.036z"/>
			<path id="T9-331" class="small1 area ctuarea" d="m589.8,281.3,3.803-4.54,4.54,3.803-3.803,4.54z"/>
			<path d="m594.3,285.1,3.803-4.54,4.035,3.381-3.803,4.54z" class="small1 area ctuarea"/>
			<path id="T9-314" class="small1 area fitarea" d="m598.3,288.5,7.181-8.576,4.035,3.381-7.181,8.576z"/>
			<path id="T9-313" class="small1 area fitarea" d="m602.3,291.9,7.181-8.576,7.564,6.339-7.181,8.576z"/>
			<path d="m594.9,247.4c-2.103,2.51-1.772,6.253,0.7379,8.353,1.884,1.578,4.459,1.782,6.518,0.7264l1.362,1.141,2.958-3.531-1.362-1.141c0.6786-2.21,0.0263-4.71-1.858-6.29-2.51-2.103-6.253-1.772-8.353,0.7379z" class="small1 area neutralarea"/>
			<path id="T9-365" class="small1 area neutralarea" d="m572.3,258.1,2.958-3.531,6.051,5.072-2.958,3.531z"/>
			<path id="T9-366" class="small1 area neutralarea" d="m578.3,263.2,2.958-3.531,6.051,5.072-2.958,3.531z"/>
			<path id="T9-367" class="small1 area neutralarea" d="m585.2,267.2,2.113-2.522,3.531,2.958-2.113,2.522z"/>
			<path d="m568.5,262.6,3.803-4.54,6.051,5.072-3.803,4.54z" class="small1 area neutralarea"/>
			<path d="m574.5,267.7,3.803-4.54,6.051,5.072-3.803,4.54z" class="small1 area neutralarea"/>
			<path d="m580.6,272.8,4.648-5.549,3.026,2.535-4.648,5.549z" class="small1 area ctuarea"/>
			<path id="T9-368" class="small1 area ctuarea" d="m588.8,270.2,2.113-2.522,2.522,2.113-2.113,2.522z"/>
			<path d="m532.7,295.1a1.366,1.366,0,0,0,0.4061,0.5791l0.8772-1.047z" class="small2 door"/>
			<path d="m541.1,285a1.366,1.366,0,0,0,0.4061,0.5791l0.8772-1.047z" class="small2 door"/>
			<path d="m554.5,269.1a1.366,1.366,0,0,1,0.6412,0.2983l-0.8772,1.047z" class="small2 door"/>
			<path d="m549.6,274.9a1.366,1.366,0,0,0,0.4061,0.5791l0.8772-1.047z" class="small2 door"/>
			<path d="m564.9,268a1.366,1.366,0,0,1,-0.6412,-0.2983l0.8772-1.047z" class="small2 door"/>
			<path d="m571.5,248.7a1.366,1.366,0,0,0,0.4061,0.5791l0.8772-1.047z" class="small2 door"/>
			<path d="m580,238.6a1.366,1.366,0,0,0,0.4061,0.5791l0.8772-1.047z" class="small2 door"/>
			<path d="m587.6,229.5a1.366,1.366,0,0,0,0.4061,0.5791l0.8772-1.047z" class="small2 door"/>
			<g>
				<path d="m604.3,255.7a1.366,1.366,0,0,1,0.6429,0.2982l-0.8772,1.047z" class="small2 door"/>
				<path d="m604.7,255.2a1.366,1.366,0,0,0,0.4063,0.5807l0.8772-1.047z" class="small2 door"/>
			</g>
			<path d="m605.1,274.5,12.11,10.14" class="small1 wall"/>
			<g>
				<path d="m609.2,271.1c-0.1398,0.1668-0.132,0.3328,0.0442,0.4804l1.816,1.522c0.1648,0.1381,0.3218,0.1261,0.4614-0.0406l1.528-1.824c0.1396-0.1667,0.1284-0.3198-0.0408-0.4615l-1.816-1.522c-0.1719-0.144-0.3332-0.1354-0.4772,0.0365,0,0-1.517,1.809-1.516,1.809z" class="smallicon"/>
				<g>
					<g>
						<path d="m611.4,272.4-0.8797-0.737,0.00012-0.00022c-0.0877-0.0735-0.1041-0.202-0.0263-0.2948l0.7386-0.8818c0.0752-0.0898,0.2061-0.1,0.2949-0.0256l0.8797,0.737,0.00025,0.00016c0.0938,0.0783,0.0995,0.205,0.026,0.2927l-0.7397,0.883,0.00001,0.00001c-0.0735,0.0878-0.2043,0.102-0.294,0.0268z" class="light"/>
						<path d="m610.7,271.5,0.7288-0.87,0.8652,0.7248-0.7288,0.87l-0.9-0.7z" class="dark"/>
					</g>
					<g>
						<path d="m610.4,270.1c-0.1159-0.0954,0.0223-0.263,0.1394-0.1665l0.3471,0.295-0.0347-0.1814c-0.0161-0.1186,0.1696-0.1481,0.19-0.0168l0.0766,0.4337c0.006,0.063-0.032,0.1075-0.0947,0.113l-0.4406-0.001c-0.1328,0.003-0.1366-0.1869-0.0168-0.19l0.1849,0.004-0.3513-0.29z" class="light"/>
						<path d="m610.4,271.2c0.1142,0.0974,0.255-0.068,0.1394-0.1665l-0.3513-0.29,0.1847,0.002c0.1196-0.005,0.1161-0.1929-0.0168-0.19l-0.4407,0.00028c-0.063,0.006-0.1002,0.0503-0.0947,0.113l0.0784,0.4338c0.0205,0.1313,0.208,0.1017,0.19-0.0168l-0.0365-0.1813,0.3471,0.295z" class="light"/>
					</g>
					<g>
						<g>
							<path d="m611.9,271.1c0.0175,0.0147,0.0179,0.039,0.005,0.0545l-0.1632,0.1948c-0.0128,0.0153-0.0372,0.0192-0.0546,0.005l-0.2117-0.1774c-0.0243-0.0204-0.0246-0.0538-0.007-0.075l0.1445-0.1725c0.0194-0.0232,0.0527-0.0254,0.0751-0.007l0.2117,0.1774z" class="light"/>
							<g>
								<path d="m611.8,271.1-0.0621,0.0741,0.2864,0.2399c0.0508,0.0426,0.1129-0.0316,0.0621-0.0741l-0.3-0.2z" class="light"/>
								<path d="m611.8,271.2-0.0621,0.0741,0.2864,0.2399c0.0504,0.0422,0.1125-0.0319,0.0621-0.0741l-0.3-0.2z" class="light"/>
							</g>
							<path d="m611.5,271c0.0257-0.0307,0.0217-0.0765-0.009-0.1023-0.0307-0.0257-0.0765-0.0217-0.1023,0.009-0.0257,0.0307-0.0217,0.0765,0.009,0.1023s0.0765,0.0217,0.1023-0.009z" class="light"/>
						</g>
						<g>
							<path d="m611.6,271.3c0.0175,0.0147,0.0179,0.039,0.005,0.0545l-0.1632,0.1948c-0.0128,0.0153-0.0372,0.0192-0.0546,0.005l-0.2117-0.1774c-0.0243-0.0204-0.0246-0.0537-0.007-0.075l0.1445-0.1725c0.0194-0.0232,0.0527-0.0254,0.0751-0.007l0.2117,0.1774z" class="light"/>
							<g>
								<path d="m611.6,271.4-0.0621,0.0741,0.2864,0.2399c0.0508,0.0426,0.1129-0.0316,0.0621-0.0741l-0.3-0.2z" class="light"/>
								<path d="m611.5,271.5-0.0621,0.0741,0.2864,0.2399c0.0504,0.0422,0.1125-0.0319,0.0621-0.0741l-0.3-0.2z" class="light"/>
							</g>
							<path d="m611.3,271.2c0.0257-0.0307,0.0217-0.0765-0.009-0.1023-0.0307-0.0257-0.0765-0.0217-0.1023,0.009-0.0257,0.0307-0.0217,0.0765,0.009,0.1023,0.0307,0.0257,0.0765,0.0217,0.1023-0.009z" class="light"/>
						</g>
						<g>
							<path d="m611.4,271.6c0.0175,0.0147,0.0179,0.039,0.005,0.0545l-0.1632,0.1948c-0.0128,0.0153-0.0372,0.0192-0.0546,0.005l-0.2117-0.1774c-0.0243-0.0204-0.0246-0.0537-0.007-0.075l0.1445-0.1725c0.0194-0.0232,0.0527-0.0254,0.0751-0.007l0.2117,0.1774z" class="light"/>
							<g>
								<path d="m611.4,271.7-0.0621,0.0741,0.2864,0.2399c0.0508,0.0426,0.1129-0.0316,0.0621-0.0741l-0.3-0.2z" class="light"/>
								<path d="m611.3,271.8-0.0621,0.0741,0.2864,0.2399c0.0504,0.0422,0.1125-0.0319,0.0621-0.0741l-0.3-0.2z" class="light"/>
							</g>
							<path d="m611,271.5c0.0258-0.0307,0.0217-0.0765-0.009-0.1023-0.0307-0.0257-0.0765-0.0217-0.1023,0.009-0.0257,0.0307-0.0217,0.0765,0.009,0.1023s0.0765,0.0217,0.1023-0.009z" class="light"/>
						</g>
					</g>
				</g>
			</g>
			<g>
				<path d="m612.4,267.2c-0.1398,0.1668-0.132,0.3328,0.0442,0.4804l1.816,1.522c0.1648,0.1381,0.3218,0.1261,0.4614-0.0406l1.528-1.824c0.1396-0.1667,0.1284-0.3198-0.0408-0.4615l-1.816-1.522c-0.1719-0.144-0.3332-0.1354-0.4772,0.0365,0,0-1.517,1.809-1.516,1.809z" class="smallicon"/>
				<g>
					<g>
						<path d="m614.6,268.6-0.8797-0.737,0.00012-0.00022c-0.0877-0.0735-0.1041-0.202-0.0263-0.2948l0.7386-0.8818c0.0752-0.0898,0.2061-0.1,0.2949-0.0256l0.8797,0.737,0.00025,0.00016c0.0938,0.0783,0.0995,0.205,0.026,0.2927l-0.7397,0.883,0.00001,0.00001c-0.0735,0.0878-0.2043,0.102-0.294,0.0268z" class="light"/>
						<path d="m613.9,267.7,0.7288-0.87,0.8652,0.7248-0.7288,0.87l-0.9-0.7z" class="dark"/>
					</g>
					<g>
						<path d="m613.6,266.3c-0.1159-0.0954,0.0223-0.263,0.1394-0.1665l0.3471,0.295-0.0347-0.1814c-0.0161-0.1186,0.1696-0.1481,0.19-0.0168l0.0766,0.4337c0.006,0.063-0.032,0.1075-0.0947,0.113l-0.4406-0.001c-0.1328,0.003-0.1366-0.1869-0.0168-0.19l0.1849,0.004-0.3513-0.29z" class="light"/>
						<path d="m613.6,267.4c0.1142,0.0974,0.255-0.068,0.1394-0.1665l-0.3513-0.29,0.1847,0.002c0.1196-0.005,0.1161-0.1929-0.0168-0.19l-0.4407,0.00028c-0.063,0.006-0.1002,0.0503-0.0947,0.113l0.0784,0.4338c0.0205,0.1313,0.208,0.1017,0.19-0.0168l-0.0365-0.1813,0.3471,0.295z" class="light"/>
					</g>
					<g>
						<g>
							<path d="m615.1,267.2c0.0175,0.0147,0.0179,0.039,0.005,0.0545l-0.1632,0.1948c-0.0128,0.0153-0.0372,0.0192-0.0546,0.005l-0.2117-0.1774c-0.0243-0.0204-0.0246-0.0538-0.007-0.075l0.1445-0.1725c0.0194-0.0232,0.0527-0.0254,0.0751-0.007l0.2117,0.1774z" class="light"/>
							<g>
								<path d="m615.1,267.3-0.0621,0.0741,0.2864,0.2399c0.0508,0.0426,0.1129-0.0316,0.0621-0.0741l-0.3-0.2z" class="light"/>
								<path d="m615,267.4-0.0621,0.0741,0.2864,0.2399c0.0504,0.0422,0.1125-0.0319,0.0621-0.0741l-0.3-0.2z" class="light"/>
							</g>
							<path d="m614.7,267.1c0.0257-0.0307,0.0217-0.0765-0.009-0.1023-0.0307-0.0257-0.0765-0.0217-0.1023,0.009-0.0257,0.0307-0.0217,0.0765,0.009,0.1023s0.0765,0.0217,0.1023-0.009z" class="light"/>
						</g>
						<g>
							<path d="m614.8,267.5c0.0175,0.0147,0.0179,0.039,0.005,0.0545l-0.1632,0.1948c-0.0128,0.0153-0.0372,0.0192-0.0546,0.005l-0.2117-0.1774c-0.0243-0.0204-0.0246-0.0538-0.007-0.075l0.1445-0.1725c0.0194-0.0232,0.0527-0.0254,0.0751-0.007l0.2117,0.1774z" class="light"/>
							<g>
								<path d="m614.8,267.6-0.0621,0.0741,0.2864,0.2399c0.0508,0.0426,0.1129-0.0316,0.0621-0.0741l-0.3-0.2z" class="light"/>
								<path d="m614.8,267.7-0.0621,0.0741,0.2864,0.2399c0.0504,0.0422,0.1125-0.0319,0.0621-0.0741l-0.3-0.2z" class="light"/>
							</g>
							<path d="m614.5,267.4c0.0257-0.0307,0.0217-0.0765-0.009-0.1023-0.0307-0.0257-0.0765-0.0217-0.1023,0.009-0.0257,0.0307-0.0217,0.0765,0.009,0.1023s0.0765,0.0217,0.1023-0.009z" class="light"/>
						</g>
						<g>
							<path d="m614.6,267.8c0.0175,0.0147,0.0179,0.039,0.005,0.0545l-0.1632,0.1948c-0.0128,0.0153-0.0372,0.0192-0.0546,0.005l-0.2117-0.1774c-0.0243-0.0204-0.0246-0.0537-0.007-0.075l0.1445-0.1725c0.0194-0.0232,0.0527-0.0254,0.0751-0.007l0.2117,0.1774z" class="light"/>
							<g>
								<path d="m614.6,267.8-0.0621,0.0741,0.2864,0.2399c0.0508,0.0426,0.1129-0.0316,0.0621-0.0741l-0.3-0.2z" class="light"/>
								<path d="m614.5,267.9-0.0621,0.0741,0.2864,0.2399c0.0504,0.0422,0.1125-0.0319,0.0621-0.0741l-0.3-0.2z" class="light"/>
							</g>
							<path d="m614.3,267.7c0.0258-0.0307,0.0217-0.0765-0.009-0.1023-0.0307-0.0257-0.0765-0.0217-0.1023,0.009-0.0257,0.0307-0.0217,0.0765,0.009,0.1023,0.0307,0.0257,0.0765,0.0217,0.1023-0.009z" class="light"/>
						</g>
					</g>
				</g>
			</g>
			<g>
				<path d="m615.5,263.5c-0.1398,0.1668-0.132,0.3328,0.0442,0.4804l1.816,1.522c0.1648,0.1381,0.3218,0.1261,0.4614-0.0406l1.528-1.824c0.1396-0.1667,0.1284-0.3198-0.0408-0.4615l-1.816-1.522c-0.1719-0.144-0.3332-0.1354-0.4772,0.0365,0,0-1.517,1.809-1.516,1.809z" class="smallicon"/>
				<g>
					<g>
						<path d="m617.7,264.8-0.8797-0.737,0.00012-0.00022c-0.0877-0.0735-0.1041-0.202-0.0263-0.2948l0.7386-0.8818c0.0752-0.0898,0.2061-0.1,0.2949-0.0256l0.8797,0.737,0.00025,0.00016c0.0938,0.0783,0.0995,0.205,0.026,0.2927l-0.7397,0.883,0.00001,0.00001c-0.0735,0.0878-0.2043,0.102-0.294,0.0268z" class="light"/>
						<path d="m617,263.9,0.7288-0.87,0.8652,0.7248-0.7288,0.87l-0.9-0.7z" class="dark"/>
					</g>
					<g>
						<path d="m616.7,262.6c-0.1159-0.0954,0.0223-0.263,0.1394-0.1665l0.3471,0.295-0.0347-0.1814c-0.0161-0.1186,0.1696-0.1481,0.19-0.0168l0.0766,0.4337c0.006,0.063-0.032,0.1075-0.0947,0.113l-0.4406-0.001c-0.1328,0.003-0.1366-0.1869-0.0168-0.19l0.1849,0.004-0.3513-0.29z" class="light"/>
						<path d="m616.7,263.6c0.1142,0.0974,0.255-0.068,0.1394-0.1665l-0.3513-0.29,0.1847,0.002c0.1196-0.005,0.1161-0.1929-0.0168-0.19l-0.4407,0.00028c-0.063,0.006-0.1002,0.0503-0.0947,0.113l0.0784,0.4338c0.0205,0.1313,0.208,0.1017,0.19-0.0168l-0.0365-0.1813,0.3471,0.295z" class="light"/>
					</g>
					<g>
						<g>
							<path d="m618.2,263.5c0.0175,0.0147,0.0179,0.039,0.005,0.0545l-0.1632,0.1948c-0.0128,0.0153-0.0372,0.0192-0.0545,0.005l-0.2117-0.1774c-0.0243-0.0204-0.0246-0.0538-0.007-0.075l0.1445-0.1725c0.0194-0.0232,0.0527-0.0254,0.0751-0.007l0.2117,0.1774z" class="light"/>
							<g>
								<path d="m618.2,263.6-0.0621,0.0741,0.2864,0.2399c0.0508,0.0426,0.1129-0.0316,0.0621-0.0741l-0.3-0.2z" class="light"/>
								<path d="m618.1,263.7-0.0621,0.0741,0.2864,0.2399c0.0504,0.0422,0.1125-0.0319,0.0621-0.0741l-0.3-0.2z" class="light"/>
							</g>
							<path d="m617.8,263.4c0.0257-0.0307,0.0217-0.0765-0.009-0.1023-0.0307-0.0257-0.0765-0.0217-0.1023,0.009-0.0257,0.0307-0.0217,0.0765,0.009,0.1023s0.0765,0.0217,0.1023-0.009z" class="light"/>
						</g>
						<g>
							<path d="m618,263.8c0.0175,0.0147,0.0179,0.039,0.005,0.0545l-0.1632,0.1948c-0.0128,0.0153-0.0372,0.0192-0.0545,0.005l-0.2117-0.1774c-0.0243-0.0204-0.0246-0.0538-0.007-0.075l0.1445-0.1725c0.0194-0.0232,0.0527-0.0254,0.0751-0.007l0.2117,0.1774z" class="light"/>
							<g>
								<path d="m618,263.8-0.0621,0.0741,0.2864,0.2399c0.0508,0.0426,0.1129-0.0316,0.0621-0.0741l-0.3-0.2z" class="light"/>
								<path d="m617.9,263.9-0.0621,0.0741,0.2864,0.2399c0.0504,0.0422,0.1125-0.0319,0.0621-0.0741l-0.3-0.2z" class="light"/>
							</g>
							<path d="m617.6,263.7c0.0257-0.0307,0.0217-0.0765-0.009-0.1023-0.0307-0.0257-0.0765-0.0217-0.1023,0.009-0.0257,0.0307-0.0217,0.0765,0.009,0.1023s0.0765,0.0217,0.1023-0.009z" class="light"/>
						</g>
						<g>
							<path d="m617.8,264c0.0175,0.0147,0.0179,0.039,0.005,0.0545l-0.1632,0.1948c-0.0128,0.0153-0.0372,0.0192-0.0545,0.005l-0.2117-0.1774c-0.0243-0.0204-0.0246-0.0537-0.007-0.075l0.1445-0.1725c0.0194-0.0232,0.0527-0.0254,0.0751-0.007l0.2117,0.1774z" class="light"/>
							<g>
								<path d="m617.7,264.1-0.0621,0.0741,0.2864,0.2399c0.0508,0.0426,0.1129-0.0316,0.0621-0.0741l-0.3-0.2z" class="light"/>
								<path d="m617.7,264.2-0.0621,0.0741,0.2864,0.2399c0.0504,0.0422,0.1125-0.0319,0.0621-0.0741l-0.3-0.2z" class="light"/>
							</g>
							<path d="m617.4,263.9c0.0258-0.0307,0.0217-0.0765-0.009-0.1023-0.0307-0.0257-0.0765-0.0217-0.1023,0.009-0.0257,0.0307-0.0217,0.0765,0.009,0.1023,0.0307,0.0257,0.0765,0.0217,0.1023-0.009z" class="light"/>
						</g>
					</g>
				</g>
			</g>
			<g>
				<path d="m618.8,259.7c-0.1398,0.1668-0.132,0.3328,0.0442,0.4804l1.816,1.522c0.1648,0.1381,0.3218,0.1261,0.4614-0.0406l1.528-1.824c0.1396-0.1667,0.1284-0.3198-0.0408-0.4615l-1.816-1.522c-0.1719-0.144-0.3332-0.1354-0.4772,0.0365,0,0-1.517,1.809-1.516,1.809z" class="smallicon"/>
				<g>
					<g>
						<path d="m621,261-0.8797-0.737,0.00012-0.00022c-0.0877-0.0735-0.1041-0.202-0.0263-0.2948l0.7386-0.8818c0.0752-0.0898,0.2061-0.1,0.2949-0.0256l0.8797,0.737,0.00025,0.00016c0.0938,0.0783,0.0995,0.205,0.026,0.2927l-0.7397,0.883,0.00001,0.00001c-0.0735,0.0878-0.2043,0.102-0.294,0.0268z" class="light"/>
						<path d="m620.2,260.1,0.7288-0.87,0.8652,0.7248-0.7288,0.87l-0.9-0.7z" class="dark"/>
					</g>
					<g>
						<path d="m619.9,258.7c-0.1159-0.0954,0.0223-0.263,0.1394-0.1665l0.3471,0.295-0.0347-0.1814c-0.0161-0.1186,0.1696-0.1481,0.19-0.0168l0.0766,0.4337c0.006,0.063-0.032,0.1075-0.0947,0.113l-0.4406-0.001c-0.1328,0.003-0.1366-0.1869-0.0168-0.19l0.1849,0.004-0.3513-0.29z" class="light"/>
						<path d="m620,259.8c0.1142,0.0974,0.255-0.068,0.1394-0.1665l-0.3513-0.29,0.1847,0.002c0.1196-0.005,0.1161-0.1929-0.0168-0.19l-0.4407,0.00028c-0.063,0.006-0.1002,0.0503-0.0947,0.113l0.0784,0.4338c0.0205,0.1313,0.208,0.1017,0.19-0.0168l-0.0365-0.1813,0.3471,0.295z" class="light"/>
					</g>
					<g>
						<g>
							<path d="m621.4,259.7c0.0175,0.0147,0.0179,0.039,0.005,0.0545l-0.1632,0.1948c-0.0128,0.0153-0.0372,0.0192-0.0545,0.005l-0.2117-0.1774c-0.0243-0.0204-0.0246-0.0537-0.007-0.075l0.1445-0.1725c0.0194-0.0232,0.0527-0.0254,0.0751-0.007l0.2117,0.1774z" class="light"/>
							<g>
								<path d="m621.4,259.7-0.0621,0.0741,0.2864,0.2399c0.0508,0.0426,0.1129-0.0316,0.0621-0.0741l-0.3-0.2z" class="light"/>
								<path d="m621.3,259.8-0.0621,0.0741,0.2864,0.2399c0.0504,0.0422,0.1125-0.0319,0.0621-0.0741l-0.3-0.2z" class="light"/>
							</g>
							<path d="m621,259.6c0.0257-0.0307,0.0217-0.0765-0.009-0.1023-0.0307-0.0257-0.0765-0.0217-0.1023,0.009-0.0257,0.0307-0.0217,0.0765,0.009,0.1023s0.0765,0.0217,0.1023-0.009z" class="light"/>
						</g>
						<g>
							<path d="m621.2,259.9c0.0175,0.0147,0.0179,0.039,0.005,0.0545l-0.1632,0.1948c-0.0128,0.0153-0.0372,0.0192-0.0546,0.005l-0.2117-0.1774c-0.0243-0.0204-0.0246-0.0538-0.007-0.075l0.1445-0.1725c0.0194-0.0232,0.0527-0.0254,0.0751-0.007l0.2117,0.1774z" class="light"/>
							<g>
								<path d="m621.2,260-0.0621,0.0741,0.2864,0.2399c0.0508,0.0426,0.1129-0.0316,0.0621-0.0741l-0.3-0.2z" class="light"/>
								<path d="m621.1,260.1-0.0621,0.0741,0.2864,0.2399c0.0504,0.0422,0.1125-0.0319,0.0621-0.0741l-0.3-0.2z" class="light"/>
							</g>
							<path d="m620.8,259.8c0.0257-0.0307,0.0217-0.0765-0.009-0.1023-0.0307-0.0257-0.0765-0.0217-0.1023,0.009-0.0257,0.0307-0.0217,0.0765,0.009,0.1023s0.0765,0.0217,0.1023-0.009z" class="light"/>
						</g>
						<g>
							<path d="m621,260.2c0.0175,0.0147,0.0179,0.039,0.005,0.0545l-0.1632,0.1948c-0.0128,0.0153-0.0372,0.0192-0.0546,0.005l-0.2117-0.1774c-0.0243-0.0204-0.0246-0.0538-0.007-0.075l0.1445-0.1725c0.0194-0.0232,0.0527-0.0254,0.0751-0.007l0.2117,0.1774z" class="light"/>
							<g>
								<path d="m620.9,260.3-0.0621,0.0741,0.2864,0.2399c0.0508,0.0426,0.1129-0.0316,0.0621-0.0741l-0.3-0.2z" class="light"/>
								<path d="m620.9,260.4-0.0621,0.0741,0.2864,0.2399c0.0504,0.0422,0.1125-0.0319,0.0621-0.0741l-0.3-0.2z" class="light"/>
							</g>
							<path d="m620.6,260.1c0.0257-0.0307,0.0217-0.0765-0.009-0.1023-0.0307-0.0257-0.0765-0.0217-0.1023,0.009-0.0257,0.0307-0.0217,0.0765,0.009,0.1023s0.0765,0.0217,0.1023-0.009z" class="light"/>
						</g>
					</g>
				</g>
			</g>
			<g>
				<path d="m644,319.7c-0.1398,0.1668-0.132,0.3328,0.0442,0.4804l1.816,1.522c0.1648,0.1381,0.3218,0.1261,0.4614-0.0406l1.528-1.824c0.1396-0.1667,0.1284-0.3198-0.0408-0.4615l-1.816-1.522c-0.1719-0.144-0.3332-0.1354-0.4772,0.0365,0,0-1.517,1.809-1.516,1.809z" class="smallicon"/>
				<path d="m645.6,321.2,0.2706-0.323-0.3288-0.2754,0.2689-0.3209-0.331-0.2773,0.2731-0.326-0.3248-0.2721,0.2712-0.3238-0.3227-0.2703,0.4026-0.4806,0.1646,0.1379-0.2677,0.3196,0.324,0.2714-0.2716,0.3242,0.3285,0.2752-0.271,0.3235,0.3268,0.2738-0.2721,0.3248,0.3296,0.2761-0.4043,0.4826-0.1661-0.1392z" class="light"/>
			</g>
			<path d="m647.1,310.3a1.366,1.366,0,0,1,-0.6412,-0.2983l0.8772-1.047z" class="small2 door"/>
			<path d="m651.7,304.7a1.366,1.366,0,0,1,-0.6412,-0.2983l0.8772-1.047z" class="small2 door"/>
			<path d="m656.4,299.2a1.366,1.366,0,0,1,-0.6412,-0.2983l0.8772-1.047z" class="small2 door"/>
			<path d="m661,293.6a1.366,1.366,0,0,1,-0.6412,-0.2983l0.8772-1.047z" class="small2 door"/>
			<path d="m665.7,288.1a1.366,1.366,0,0,1,-0.6412,-0.2983l0.8772-1.047z" class="small2 door"/>
			<g>
				<path d="m626.8,278.3c-0.1398,0.1668-0.132,0.3328,0.0442,0.4804l1.816,1.522c0.1648,0.1381,0.3218,0.1261,0.4614-0.0406l1.528-1.824c0.1396-0.1667,0.1284-0.3198-0.0408-0.4615l-1.816-1.522c-0.1719-0.144-0.3332-0.1354-0.4772,0.0365,0,0-1.517,1.809-1.516,1.809z" class="smallicon"/>
				<g>
					<path d="m628.4,279.8,0.2706-0.323-0.3288-0.2754,0.2689-0.3209-0.331-0.2773,0.2731-0.326-0.3248-0.2721,0.2712-0.3238-0.3227-0.2703,0.4026-0.4806,0.1646,0.1379-0.2677,0.3196,0.324,0.2714-0.2716,0.3242,0.3285,0.2752-0.271,0.3235,0.3268,0.2738-0.2721,0.3248,0.3296,0.2761-0.4043,0.4826-0.1661-0.1392z" class="light"/>
					<path d="m629.5,278.8,0.2393-0.2857c0.0659-0.0787-0.0526-0.1831-0.1211-0.1014l-0.1227,0.1464-0.0452-0.5118c-0.01-0.1135-0.1725-0.101-0.1618,0.0196l0.0453,0.5048-0.145-0.1214c-0.0783-0.0663-0.1836,0.0532-0.1021,0.1218l0.2839,0.2378c0.0424,0.0355,0.0948,0.031,0.1293-0.0102z" class="light"/>
				</g>
			</g>
			<g>
				<path d="m610.2,278.1c-0.1398,0.1668-0.132,0.3328,0.0442,0.4804l1.816,1.522c0.1648,0.1381,0.3218,0.1261,0.4614-0.0406l1.528-1.824c0.1396-0.1667,0.1284-0.3198-0.0408-0.4615l-1.816-1.522c-0.1719-0.144-0.3332-0.1354-0.4772,0.0365,0,0-1.517,1.809-1.516,1.809z" class="smallicon"/>
				<path d="m611.8,279.6,0.2706-0.323-0.3288-0.2754,0.2689-0.3209-0.331-0.2773,0.2731-0.326-0.3248-0.2721,0.2712-0.3238-0.3227-0.2703,0.4026-0.4806,0.1646,0.1379-0.2677,0.3196,0.324,0.2714-0.2716,0.3242,0.3285,0.2752-0.271,0.3235,0.3268,0.2738-0.2721,0.3248,0.3296,0.2761-0.4043,0.4826-0.1661-0.1392z" class="light"/>
			</g>
			<g>
				<path d="m597.6,251.3c-0.1398,0.1668-0.132,0.3328,0.0442,0.4804l1.816,1.522c0.1648,0.1381,0.3218,0.1261,0.4614-0.0406l1.528-1.824c0.1396-0.1667,0.1284-0.3198-0.0408-0.4615l-1.816-1.522c-0.1719-0.144-0.3332-0.1354-0.4772,0.0365,0,0-1.517,1.809-1.516,1.809z" class="smallicon"/>
				<path d="m599.3,252.7,0.2706-0.323-0.3288-0.2754,0.2689-0.3209-0.331-0.2773,0.2731-0.326-0.3248-0.2721,0.2712-0.3238-0.3227-0.2703,0.4026-0.4806,0.1646,0.1379-0.2677,0.3196,0.324,0.2714-0.2716,0.3242,0.3285,0.2752-0.271,0.3235,0.3268,0.2738-0.2721,0.3248,0.3296,0.2761-0.4043,0.4826-0.1661-0.1392z" class="light"/>
			</g>
			<g>
				<path d="m555.8,328.2c-0.1398,0.1668-0.132,0.3328,0.0442,0.4804l1.816,1.522c0.1648,0.1381,0.3218,0.1261,0.4614-0.0406l1.528-1.824c0.1396-0.1667,0.1284-0.3198-0.0408-0.4615l-1.816-1.522c-0.1719-0.144-0.3332-0.1354-0.4772,0.0365,0,0-1.517,1.809-1.516,1.809z" class="smallicon"/>
				<path d="m557.4,329.7,0.2706-0.323-0.3288-0.2754,0.2689-0.3209-0.331-0.2773,0.2731-0.326-0.3248-0.2721,0.2712-0.3238-0.3227-0.2703,0.4026-0.4806,0.1646,0.1379-0.2677,0.3196,0.324,0.2714-0.2716,0.3242,0.3285,0.2752-0.271,0.3235,0.3268,0.2738-0.2721,0.3248,0.3296,0.2761-0.4043,0.4826-0.1661-0.1392z" class="light"/>
			</g>
			<path d="m569.3,298.5-3.381,4.035m-3.887,4.641-3.296,3.935-2.522-2.113,17.75-21.18,2.522,2.113-3.296,3.935" class="small1 wall"/>
			<path d="m582,282.4a1.366,1.366,0,0,0,0.4061,0.5791l0.8772-1.047z" class="small2 door"/>
			<path d="m584.4,279.5a1.366,1.366,0,0,1,0.6412,0.2983l-0.8772,1.047z" class="small2 door"/>
			<path d="m593.6,270.6a1.366,1.366,0,0,0,-0.4061,-0.5791l-0.8772,1.047z" class="small2 door"/>
			<path d="m630.5,295.7,4.035,3.381m-12.51-10.48,4.237,3.549m-2.024-5.987,20.68,17.33-2.113,2.522-4.035-3.381" class="small1 wall"/>
			<path d="m578.2,299.3a1.366,1.366,0,0,0,-0.4061,-0.5791l-0.8772,1.047z" class="small2 door"/>
			<path d="m589.1,283.1a1.366,1.366,0,0,1,-0.6412,-0.2983l0.8772-1.047z" class="small2 door"/>
			<path d="m553.6,315.4a1.366,1.366,0,0,1,0.2983,-0.6412l1.047,0.8772z" class="small2 door"/>
			<path d="m542,305.7a1.366,1.366,0,0,1,0.2983,-0.6412l1.047,0.8772z" class="small2 door"/>
			<path d="m556.4,317.8a1.366,1.366,0,0,0,0.5791,-0.4061l-1.047-0.8772z" class="small2 door"/>
			<path d="m560.6,317.2a1.366,1.366,0,0,0,-0.4061,-0.5791l-0.8772,1.047z" class="small2 door"/>
			<path d="m575.6,307.2a1.366,1.366,0,0,1,-0.2983,0.6412l-1.047-0.8772z" class="small2 door"/>
			<path d="m588.3,292.1a1.366,1.366,0,0,1,-0.2983,0.6412l-1.047-0.8772z" class="small2 door"/>
			<path d="m591.7,278a1.366,1.366,0,0,1,0.6412,0.2983l-0.8772,1.047z" class="small2 door"/>
			<path d="m595,273.9a1.366,1.366,0,0,1,0.6412,0.2983l-0.8772,1.047z" class="small2 door"/>
			<path d="m596.3,285.9a1.366,1.366,0,0,0,-0.5791,0.4061l1.047,0.8772z" class="small2 door"/>
			<path d="m600.2,285.1a1.366,1.366,0,0,1,0.6412,0.2983l-0.8772,1.047z" class="small2 door"/>
			<path d="m608,286.1a1.366,1.366,0,0,1,-0.6412,-0.2983l0.8772-1.047z" class="small2 door"/>
			<path d="m606.7,281.8a1.366,1.366,0,0,1,0.2983,-0.6412l1.047,0.8772z" class="small2 door"/>
			<path d="m614.3,288.1a1.366,1.366,0,0,1,0.2983,-0.6412l1.047,0.8772z" class="small2 door"/>
			<path d="m620.2,294.8a1.366,1.366,0,0,1,0.2983,-0.6412l1.047,0.8772z" class="small2 door"/>
			<path d="m626,299.7a1.366,1.366,0,0,1,0.2983,-0.6412l1.047,0.8772z" class="small2 door"/>
			<path d="m631.9,304.6a1.366,1.366,0,0,1,0.2983,-0.6412l1.047,0.8772z" class="small2 door"/>
			<path d="m637.5,309.4a1.366,1.366,0,0,1,0.2983,-0.6412l1.047,0.8772z" class="small2 door"/>
			<path d="m657.3,277.8a1.366,1.366,0,0,0,-0.5791,0.4061l1.047,0.8772z" class="small2 door"/>
			<path d="m664.1,283.5a1.366,1.366,0,0,1,-0.2983,0.6412l-1.047-0.8772z" class="small2 door"/>
			<path d="m648.7,270.6a1.366,1.366,0,0,0,-0.5791,0.4061l1.047,0.8772z" class="small2 door"/>
			<path d="m638.1,261.7a1.366,1.366,0,0,0,-0.5791,0.4061l1.047,0.8772z" class="small2 door"/>
			<path d="m633.4,267.3a1.366,1.366,0,0,1,0.2983,-0.6412l1.047,0.8772z" class="small2 door"/>
			<path d="m617.7,244.6a1.366,1.366,0,0,1,-0.2983,0.6412l-1.047-0.8772z" class="small2 door"/>
			<path d="m611.9,239.7a1.366,1.366,0,0,0,-0.5791,0.4061l1.047,0.8772z" class="small2 door"/>
			<path d="m602.3,231.7a1.366,1.366,0,0,0,-0.5791,0.4061l1.047,0.8772z" class="small2 door"/>
			<path d="m620.8,282.4a1.366,1.366,0,0,0,-0.5791,0.4061l1.047,0.8772z" class="small2 door"/>
			<path d="m589.9,266a1.366,1.366,0,0,0,-0.5791,0.4061l1.047,0.8772z" class="small2 door"/>
			<path d="m576.2,260.4a1.366,1.366,0,0,1,-0.2983,0.6412l-1.047-0.8772z" class="small2 door"/>
			<path d="m582.2,265.5a1.366,1.366,0,0,1,-0.2983,0.6412l-1.047-0.8772z" class="small2 door"/>
			<path d="m584.3,263a1.366,1.366,0,0,0,0.5791,-0.4061l-1.047-0.8772z" class="small2 door"/>
			<path d="m578.2,258a1.366,1.366,0,0,0,0.5791,-0.4061l-1.047-0.8772z" class="small2 door"/>
			<path d="m643.2,312.4a1.366,1.366,0,0,0,0.5791,-0.4061l-1.047-0.8772z" class="small2 door"/>
			<g>
				<path d="m577.5,267.9c-0.1398,0.1668-0.132,0.3328,0.0442,0.4804l1.816,1.522c0.1648,0.1381,0.3218,0.1261,0.4614-0.0406l1.528-1.824c0.1396-0.1667,0.1284-0.3198-0.0408-0.4615l-1.816-1.522c-0.1719-0.144-0.3332-0.1354-0.4772,0.0365,0,0-1.517,1.809-1.516,1.81z" class="smallicon"/>
				<g>
					<path d="m578.8,267.4c0.0747-0.0892,0.063-0.2221-0.0262-0.2968s-0.2221-0.063-0.2968,0.0262-0.063,0.2221,0.0262,0.2968,0.2221,0.063,0.2968-0.0262z" class="light"/>
					<path d="m579.8,268.3,0.5594,0.4685c0.1016,0.0851-0.0259,0.2374-0.1276,0.1523l-0.5553-0.4651-0.1713,0.2045-0.5751-0.8538-0.0284,0.0339,0.3212,0.4855c0.0679,0.1084-0.0777,0.2044-0.1531,0.0914l-0.3466-0.5306c-0.0403-0.0596-0.0782-0.2053,0.0191-0.3213l0.0897-0.107,0.0965-0.1152c0.0964-0.115,0.2475-0.103,0.3143-0.0766l0.5828,0.2479c0.1235,0.0554,0.0584,0.2172-0.0643,0.1659l-0.533-0.2302-0.0308,0.0367,0.9429,0.4148-0.1716,0.2048,0.5561,0.4658c0.1009,0.0845-0.0266,0.2358-0.127,0.1516l-0.5601-0.4692-0.0378,0.0452z" class="light"/>
				</g>
			</g>
			<g>
				<path d="m571.5,262.8c-0.1398,0.1668-0.132,0.3328,0.0442,0.4804l1.816,1.522c0.1648,0.1381,0.3218,0.1261,0.4614-0.0406l1.528-1.824c0.1396-0.1667,0.1284-0.3198-0.0408-0.4615l-1.816-1.522c-0.1719-0.144-0.3332-0.1354-0.4772,0.0365,0,0-1.517,1.809-1.516,1.809z" class="smallicon"/>
				<g>
					<path d="m572.7,262.3c0.0762-0.091,0.0643-0.2266-0.0267-0.3029-0.091-0.0762-0.2266-0.0643-0.3028,0.0268-0.0762,0.091-0.0643,0.2266,0.0267,0.3028s0.2266,0.0643,0.3028-0.0267z" class="light"/>
					<path d="m572.6,262.5c-0.0978,0.1167-0.0812,0.2902,0.0375,0.3897l0.506,0.4239c0.0984,0.0824,0.219-0.0615,0.1206-0.1439l-0.4625-0.3874,0.0285-0.0341,1.267,1.061c0.1315,0.1102,0.2882-0.0848,0.1606-0.1917l-0.7353-0.6159,0.0277-0.033,0.7353,0.6159c0.1276,0.1069,0.293-0.0826,0.1615-0.1927l-1.267-1.061,0.0279-0.0333,0.4625,0.3874c0.0991,0.083,0.2191-0.0602,0.1197-0.1429l-0.5028-0.4212c-0.1094-0.0917-0.2879-0.0965-0.3952,0.0316l-0.2918,0.3479z" class="light"/>
				</g>
			</g>
			<path d="m547.7,310.5a1.366,1.366,0,0,1,0.2983,-0.6412l1.047,0.8772z" class="small2 door"/>
			<path d="m536.1,300.8a1.366,1.366,0,0,1,0.2983,-0.6412l1.047,0.8772z" class="small2 door"/>
			<path d="m583.6,275.3,4.648-5.549,3.026,2.535-4.648,5.549z" class="small1 area ctuarea"/>
			<path d="m582.9,273.9a1.366,1.366,0,0,1,-0.2983,0.6412l-1.047-0.8772z" class="small2 door"/>
			<path d="m585.2,275.7a1.366,1.366,0,0,0,-0.5791,0.4061l1.047,0.8772z" class="small2 door"/>
		</g>
	</g>
	<path d="m539.2,991.6-12.1,39.45,23.14,243.4,388.2-33.96-8.073-105.5c-3.273-12.79-8.961-25.23-29.85-33.41zm18.8,47.6,320.7,98.34c3.582,9.664,12.62,14.04,24.37,15.44l5.981,57.97-331.8,30.84z" class="big1 area otherarea"/>
	<path d="m461.5,1187-8.513-89.6,39.82-3.784,8.513,89.6z" class="big1 area otherarea"/>
	<g id="MAS">
		<path d="m191.8,1308-4.729-49.78,54.75-5.202,4.729,49.78z" class="big1 area ctuarea"/>
		<path d="m192,1258-0.9459-9.955,44.8-4.256,0.9459,9.955z" class="big1 area ctuarea"/>
		<path d="m173.1,1059-0.9459-9.955,44.8-4.256,0.9459,9.955z" class="big1 area ctuarea"/>
		<path d="m66.37,1311,29.87-2.838-0.4729-4.978,94.57-8.986-2.838-29.87-94.57,8.986-2.365-24.89-29.87,2.838,5.675,59.73z" class="big1 area ctuarea"/>
		<path d="m83.07,1063,29.87-2.838-0.4729-4.978,109.5-10.4-2.838-29.87-109.5,10.4-1.892-19.91-29.87,2.838,5.202,54.75z" class="big1 area ctuarea"/>
		<path id="MK" d="m88.21,1223-12.77-134.4,29.87-2.838,12.77,134.4z" class="big1 area ctuarea"/>
		<path d="m181.1,1249-17.97-189.1,64.71-6.148,17.97,189.1z" class="big1 area ctuarea"/>
	</g>
	<path id="DEJ" class="big1 area ctuarea" d="m390.6,984.2,46.71,15.19,11.04-34.96-47.01-14.55z"/>
	<path id="SIN" class="big1 area ctuarea" d="m591.7,1008-11.71,38.36,111,34.07,11.77-38.58-111.1-33.84z"/>
	<text xml:space="preserve" class="label buildingpartlabel" y="862.46875" x="1100.149"><tspan y="862.46875" x="1100.149">A4</tspan></text>
	<text xml:space="preserve" class="label buildingpartlabel" y="816.46075" x="1118.7825"><tspan y="816.46075" x="1118.7825">C4</tspan></text>
	<text xml:space="preserve" class="label buildingpartlabel" y="741.81079" x="1119.1415"><tspan y="741.81079" x="1119.1415">B3</tspan></text>
	<text xml:space="preserve" class="label buildingpartlabel" y="745.37537" x="1231.7589"><tspan y="745.37537" x="1231.7589">F1</tspan></text>
	<text xml:space="preserve" class="label buildingpartlabel" y="812.6308" x="1059.7383"><tspan y="812.6308" x="1059.7383">D3</tspan></text>
	<text xml:space="preserve" class="label buildingpartlabel" y="782.06329" x="1004.2892"><tspan y="782.06329" x="1004.2892">A3</tspan></text>
	<text xml:space="preserve" class="label buildingpartlabel" y="745.75073" x="1034.4677"><tspan y="745.75073" x="1034.4677">C3</tspan></text>
	<text xml:space="preserve" class="label buildingpartlabel" y="730.50122" x="965.69958"><tspan y="730.50122" x="965.69958">D2</tspan></text>
	<text xml:space="preserve" class="label buildingpartlabel" y="701.77625" x="908.66547"><tspan y="701.77625" x="908.66547">A2</tspan></text>
	<text xml:space="preserve" class="label buildingpartlabel" y="665.30072" x="938.8089"><tspan y="665.30072" x="938.8089">C2</tspan></text>
	<text xml:space="preserve" class="label buildingpartlabel" y="661.51123" x="1023.3678"><tspan y="661.51123" x="1023.3678">B2</tspan></text>
	<text xml:space="preserve" class="label buildingpartlabel" y="651.94623" x="869.09576"><tspan y="651.94623" x="869.09576">D1</tspan></text>
	<text xml:space="preserve" class="label buildingpartlabel" y="621.37622" x="813.65161"><tspan y="621.37622" x="813.65161">A1</tspan></text>
	<text xml:space="preserve" class="label buildingpartlabel" y="594.66077" x="855.36505"><tspan y="594.66077" x="855.36505">C1</tspan></text>
	<text xml:space="preserve" class="label buildingpartlabel" y="581.11127" x="928.5589"><tspan y="581.11127" x="928.5589">B1</tspan></text>
	<text xml:space="preserve" class="label buildinglabel" y="520.32623" x="740.85217"><tspan y="520.32623" x="740.85217">TK</tspan></text>
	<text xml:space="preserve" class="label buildingpartlabel" y="478.90234" x="963.48035"><tspan y="478.90234" x="963.48035">G3</tspan></text>
	<text xml:space="preserve" class="label buildingpartlabel" y="482.6781" x="1067.4943"><tspan y="482.6781" x="1067.4943">H3</tspan></text>
	<text xml:space="preserve" class="label buildingpartlabel" y="530.80469" x="1072.6418"><tspan y="530.80469" x="1072.6418">E3</tspan></text>
	<text xml:space="preserve" class="label buildingpartlabel" y="477.70752" x="1140.0944"><tspan y="477.70752" x="1140.0944">H2</tspan></text>
	<text xml:space="preserve" class="label buildingpartlabel" y="471.95016" x="1202.7518"><tspan y="471.95016" x="1202.7518">G2</tspan></text>
	<text xml:space="preserve" class="label buildingpartlabel" y="620.72217" x="1148.8505"><tspan y="620.72217" x="1148.8505">E1</tspan></text>
	<text xml:space="preserve" class="label buildingpartlabel" y="617.86548" x="1185.8923"><tspan y="617.86548" x="1185.8923">H1</tspan></text>
	<text xml:space="preserve" class="label buildingpartlabel" y="615.75159" x="1221.4506"><tspan y="615.75159" x="1221.4506">G1</tspan></text>
	<text xml:space="preserve" class="label buildinglabel" y="517.35278" x="1294.4487"><tspan y="517.35278" x="1294.4487">J5</tspan></text>
	<text xml:space="preserve" class="label buildingpartlabel" y="424.34601" x="1131.8188"><tspan y="424.34601" x="1131.8188">F2</tspan></text>
	<text xml:space="preserve" class="label buildingpartlabel" y="429.31638" x="1059.2185"><tspan y="429.31638" x="1059.2185">F3</tspan></text>
	<text xml:space="preserve" class="label buildingpartlabel" y="375.63074" x="516.69574"><tspan y="375.63074" x="516.69574">A</tspan></text>
	<text xml:space="preserve" class="label buildinglabel" y="625.14124" x="890.87366"><tspan y="625.14124" x="890.87366">T4</tspan></text>
	<text xml:space="preserve" class="label buildinglabel" y="431.79001" x="450.35001"><tspan y="431.79001" x="450.35001">TH</tspan></text>
	<text xml:space="preserve" class="label buildingpartlabel" y="452.91074" x="406.43076"><tspan y="452.91074" x="406.43076">C</tspan></text>
	<text xml:space="preserve" class="label buildingpartlabel" y="572.46075" x="299.88593"><tspan y="572.46075" x="299.88593">B</tspan></text>
	<text xml:space="preserve" class="label buildingpartlabel" y="372.75073" x="310.40619"><tspan y="372.75073" x="310.40619">D</tspan></text>
	<text id="T9-label" xml:space="preserve" class="label buildinglabel" y="261.20239" x="609.22772"><tspan y="261.20239" x="609.22772">T9</tspan></text>
	<text xml:space="preserve" class="label buildinglabel" y="653.31512" x="617.70477"><tspan y="653.31512" x="617.70477">VCHT</tspan></text>
	<text xml:space="preserve" class="label buildinglabel" y="866.07404" x="225.22549"><tspan y="866.07404" x="225.22549">KTF</tspan></text>
	<text xml:space="preserve" class="label buildinglabel" y="979.5603" x="419.53995"><tspan y="979.5603" x="419.53995">DEJ</tspan></text>
	<text xml:space="preserve" class="label buildinglabel" y="1049.2223" x="641.68604"><tspan y="1049.2223" x="641.68604">SIN</tspan></text>
	<text xml:space="preserve" class="label buildingpartlabel" y="879.34058" x="596.24335"><tspan y="879.34058" x="596.24335">B3</tspan></text>
	<text xml:space="preserve" class="label buildinglabel" y="989.38831" x="752.81671"><tspan y="989.38831" x="752.81671">Z4</tspan></text>
	<text xml:space="preserve" class="label buildingpartlabel" y="998.6236" x="780.6825"><tspan y="998.6236" x="780.6825">B2</tspan></text>
	<text xml:space="preserve" class="label buildinglabel" y="877.1936" x="850.02057"><tspan y="877.1936" x="850.02057">VCHT</tspan></text>
	<text xml:space="preserve" class="label buildinglabel" y="1037.9396" x="931.34039"><tspan y="1037.9396" x="931.34039">Z2</tspan></text>
	<text xml:space="preserve" class="label buildingpartlabel" y="1015.7944" x="967.89899"><tspan y="1015.7944" x="967.89899">B1</tspan></text>
	<text xml:space="preserve" class="label buildinglabel" y="1159.3917" x="96.281487"><tspan y="1159.3917" x="96.281487">MK</tspan></text>
	<text xml:space="preserve" class="label buildinglabel" y="1156.3833" x="204.32303"><tspan y="1156.3833" x="204.32303">MAS</tspan></text>
	<text xml:space="preserve" class="label buildinglabel" y="785.94623" x="1082.67"><tspan y="785.94623" x="1082.67">T2</tspan></text>
	<g>
		<path d="m1174,854.1c-1.793,0-2.8,0.9252-2.8,2.816v19.49c0,1.768,0.9061,2.694,2.697,2.694h19.6c1.791,0,2.699-0.8797,2.699-2.694v-19.49c0-1.844-0.9074-2.816-2.755-2.816,0,0-19.45-0.01-19.44,0z" class="dark"/>
		<g>
			<path d="m1184,857.8c-1.746,0-4.157,0.498-5.154,0.9129-0.9977,0.415-1.663,0.83-1.871,1.867l-0.7482,5.751v7.925h1.289v1.243c0,1.515,2.221,1.515,2.221,0v-1.243h4.101,0.013,4.264v1.243c0,1.515,2.221,1.515,2.221,0v-1.243h1.289v-7.925l-0.7482-5.751c-0.2078-1.037-0.8729-1.452-1.871-1.867-0.9977-0.4149-3.409-0.9129-5.155-0.9129" class="light"/>
			<g>
				<g>
					<g>
						<path d="m1189,871.8c0.5884,0,1.066-0.4763,1.066-1.064,0-0.5874-0.4771-1.064-1.066-1.064-0.5885,0-1.066,0.4763-1.066,1.064,0,0.5874,0.4771,1.064,1.066,1.064z" class="dark"/>
					</g>
					<g>
						<path d="m1179,871.8c-0.5884,0-1.066-0.4763-1.066-1.064,0-0.5874,0.4771-1.064,1.066-1.064,0.5884,0,1.066,0.4763,1.066,1.064,0,0.5874-0.4771,1.064-1.066,1.064z" class="dark"/>
					</g>
				</g>
				<path d="m1184,860.2-3.085,0c-0.6236,0-0.6236-0.9337,0-0.9337h3.093,3.242c0.6235,0,0.6235,0.9337,0,0.9337h-3.25z" class="dark"/>
				<path d="m1184,861.1-4.766,0c-0.6587,0-0.8308,0.3342-0.9108,0.8409l-0.5824,4.171c-0.054,0.3998,0.062,0.7967,0.6149,0.7967h5.652,5.802c0.5534,0,0.6693-0.3969,0.6149-0.7967l-0.5823-4.171c-0.08-0.5067-0.2521-0.8409-0.9108-0.8409h-4.931z" class="dark"/>
			</g>
		</g>
	</g>
	<g>
		<path d="m941.2,1054c-1.793,0-2.8,0.9253-2.8,2.816v19.49c0,1.768,0.9061,2.694,2.697,2.694h19.6c1.791,0,2.699-0.8797,2.699-2.694v-19.49c0-1.844-0.9074-2.816-2.755-2.816,0,0-19.45-0.01-19.44,0z" class="dark"/>
		<path d="m943.9,1070,0-11.03,11.05,0.0001,3.645,3.638-8.407,0.0001,8.26,8.245-2.675,2.67-8.23-8.216-0.0001,8.346-3.645-3.652z" class="light"/>
	</g>
	<g>
		<path d="m56.01,1339c-1.793,0-2.8,0.9252-2.8,2.816v19.49c0,1.768,0.906,2.694,2.697,2.694h19.6c1.791,0,2.699-0.8798,2.699-2.694v-19.49c0-1.844-0.9074-2.816-2.755-2.816,0,0-19.45-0.01-19.44,0z" class="dark"/>
		<g>
			<path d="m61.9,1340-1.5,1.969,1.719,0,0.6562-0.625,2.25,0,0,1.906-2.531,0c-1.497,0-2.594,1.193-2.594,2.5v9.25c0,1.266,1.002,2.308,2,2.469l-3,4.5h1.719l2.156-3.156h2.906,2.938l2.156,3.156h1.719l-3-4.5c0.998-0.1605,2-1.202,2-2.469v-9.25c0-1.307-1.097-2.5-2.594-2.5h-2.531v-1.906h2.281l0.625,0.625h1.719l-1.469-1.969z" class="light"/>
			<g>
				<path d="m68.93,1356c0.6291,0,1.139-0.5091,1.139-1.137,0-0.628-0.5099-1.137-1.139-1.137s-1.139,0.509-1.139,1.137c0,0.6279,0.5099,1.137,1.139,1.137z" class="dark"/>
				<path d="m65.7,1350,0.0026,0,3.112,0c0.7156,0,1.301-0.4903,1.294-1.291v-1.667c0-0.6927-0.4488-1.297-1.294-1.297h-3.112-0.0052-3.112c-0.8457,0-1.294,0.6045-1.294,1.297v1.667c-0.0066,0.801,0.5789,1.291,1.294,1.291h3.112,0.0026z" class="dark"/>
				<path d="m65.7,1345,0.0026,0,1.258,0c0.2385,0,0.4257-0.1954,0.4257-0.4227v-0.736c0-0.2273-0.198-0.4182-0.4257-0.4182h-1.258-0.0026-0.0026-1.258c-0.2277,0-0.4257,0.1909-0.4257,0.4182v0.736c0,0.2273,0.1872,0.4227,0.4257,0.4227h1.258,0.0026z" class="dark"/>
				<path d="m62.44,1356c-0.6291,0-1.139-0.5091-1.139-1.137,0-0.628,0.5099-1.137,1.139-1.137s1.139,0.509,1.139,1.137c0,0.6279-0.5099,1.137-1.139,1.137z" class="dark"/>
				<text class="iconlabel" xml:space="preserve" y="1354.0822" x="65.709633"><tspan x="65.709633" y="1354.0822">T</tspan></text>
			</g>
		</g>
	</g>
	<g>
		<path d="m1247,1146c-1.793,0-2.8,0.9252-2.8,2.816v19.49c0,1.768,0.906,2.694,2.697,2.694h19.6c1.791,0,2.699-0.8797,2.699-2.694v-19.49c0-1.844-0.9074-2.816-2.755-2.816,0,0-19.45-0.01-19.44,0z" class="dark"/>
		<g>
			<g>
				<path d="m1257,1165,0,0,2.931,0,2.141,3.133,1.727,0-2.993-4.482c0.9981-0.1605,1.992-1.2,1.992-2.466v-9.259c0-1.307-1.102-2.507-2.598-2.507h-3.189,0.0002-3.214c-1.496,0-2.598,1.2-2.598,2.507v9.259c0,1.266,0.9934,2.305,1.991,2.466l-2.993,4.482h1.727l2.141-3.133h2.93z" class="light"/>
				<path d="m1256,1150c-0.3975,0-0.7196-0.3216-0.7196-0.7183s0.3221-0.7183,0.7196-0.7183c0.3973,0,0.7195,0.3216,0.7195,0.7183s-0.3222,0.7183-0.7195,0.7183z" class="light"/>
				<path d="m1258,1150c0.3975,0,0.7196-0.3216,0.7196-0.7183s-0.3221-0.7183-0.7196-0.7183c-0.3974,0-0.7195,0.3216-0.7195,0.7183s0.3221,0.7183,0.7195,0.7183z" class="light"/>
			</g>
			<g>
				<path d="m1260,1163c0.6291,0,1.139-0.5091,1.139-1.137,0-0.628-0.5099-1.137-1.139-1.137s-1.139,0.509-1.139,1.137c0,0.6279,0.5099,1.137,1.139,1.137z" class="dark"/>
				<path d="m1257,1157,0,0,3.112,0c0.7155,0,1.301-0.4902,1.294-1.291v-1.667c0-0.6927-0.4487-1.297-1.294-1.297h-3.112-0.01-3.112c-0.8457,0-1.294,0.6045-1.294,1.297v1.667c-0.01,0.8009,0.5788,1.291,1.294,1.291h3.112z" class="dark"/>
				<path d="m1257,1152,0,0,1.258,0c0.2385,0,0.4257-0.1954,0.4257-0.4228v-0.7361c0-0.2273-0.198-0.4182-0.4257-0.4182h-1.258-1.258c-0.2277,0-0.4257,0.1909-0.4257,0.4182v0.7361c0,0.2274,0.1872,0.4228,0.4257,0.4228h1.258z" class="dark"/>
				<path d="m1254,1163c-0.6291,0-1.139-0.5091-1.139-1.137,0-0.628,0.5099-1.137,1.139-1.137s1.139,0.509,1.139,1.137c0,0.6279-0.5099,1.137-1.139,1.137z"/>
				<text class="iconlabel" xml:space="preserve" y="1160.8844" x="1257.0371"><tspan x="1257.0371" y="1160.8844">M</tspan></text>
			</g>
		</g>
	</g>
	<g>
		<path d="m945.3,1210c-1.793,0-2.8,0.9251-2.8,2.816v19.49c0,1.768,0.906,2.694,2.697,2.694h19.6c1.791,0,2.699-0.8798,2.699-2.694v-19.49c0-1.844-0.9074-2.816-2.755-2.816,0,0-19.45-0.01-19.44,0z" class="dark"/>
		<g>
			<g>
				<path d="m954.9,1229,0.003,0,2.931,0,2.141,3.133,1.727,0-2.993-4.482c0.998-0.1606,1.991-1.2,1.991-2.466v-9.259c0-1.307-1.102-2.507-2.598-2.507h-3.189,0.00013-3.213c-1.497,0-2.598,1.2-2.598,2.507v9.259c0,1.266,0.9935,2.305,1.991,2.466l-2.993,4.482h1.727l2.141-3.133h2.931,0.003z" class="light"/>
				<path d="m954,1214c-0.3975,0-0.7196-0.3216-0.7196-0.7184,0-0.3967,0.3221-0.7183,0.7196-0.7183,0.3974,0,0.7196,0.3216,0.7196,0.7183,0,0.3968-0.3222,0.7184-0.7196,0.7184z" class="light"/>
				<path d="m955.9,1214c0.3975,0,0.7196-0.3216,0.7196-0.7184,0-0.3967-0.3221-0.7183-0.7196-0.7183-0.3974,0-0.7195,0.3216-0.7195,0.7183,0,0.3968,0.3222,0.7184,0.7195,0.7184z" class="light"/>
			</g>
			<g>
				<path d="m958.2,1227c0.6291,0,1.139-0.5091,1.139-1.137,0-0.628-0.5099-1.137-1.139-1.137s-1.139,0.509-1.139,1.137c0,0.6279,0.5099,1.137,1.139,1.137z" class="dark"/>
				<path d="m954.9,1221,0.003,0,3.112,0c0.7156,0,1.301-0.4903,1.294-1.291v-1.667c0-0.6927-0.4488-1.297-1.294-1.297h-3.112-0.005-3.112c-0.8457,0-1.294,0.6045-1.294,1.297v1.667c-0.007,0.801,0.5789,1.291,1.294,1.291h3.112,0.003z" class="dark"/>
				<path d="m954.9,1216,0.003,0,1.258,0c0.2385,0,0.4257-0.1954,0.4257-0.4227v-0.736c0-0.2273-0.198-0.4182-0.4257-0.4182h-1.258-0.003-0.003-1.258c-0.2277,0-0.4257,0.1909-0.4257,0.4182v0.736c0,0.2273,0.1872,0.4227,0.4257,0.4227h1.258,0.003z" class="dark"/>
				<path d="m951.7,1227c-0.6291,0-1.139-0.5091-1.139-1.137,0-0.628,0.5099-1.137,1.139-1.137s1.139,0.509,1.139,1.137c0,0.6279-0.5099,1.137-1.139,1.137z"/>
				<text class="iconlabel" xml:space="preserve" y="1224.8844" x="954.93713"><tspan x="954.93713" y="1224.8844">M</tspan></text>
			</g>
		</g>
	</g>
	<g>
		<path d="m772.8,1279c-1.793,0-2.8,0.9252-2.8,2.816v19.49c0,1.768,0.906,2.694,2.697,2.694h19.6c1.791,0,2.699-0.8797,2.699-2.694v-19.49c0-1.844-0.9074-2.816-2.755-2.816,0,0-19.45-0.01-19.44,0z" class="dark"/>
		<g>
			<path d="m778.6,1280-1.5,1.969,1.719,0,0.6562-0.625,2.25,0,0,1.906-2.531,0c-1.497,0-2.594,1.193-2.594,2.5v9.25c0,1.266,1.002,2.308,2,2.469l-3,4.5h1.719l2.156-3.156h2.906,2.938l2.156,3.156h1.719l-3-4.5c0.998-0.1605,2-1.202,2-2.469v-9.25c0-1.307-1.097-2.5-2.594-2.5h-2.531v-1.906h2.281l0.625,0.625h1.719l-1.469-1.969z" class="light"/>
			<g>
				<path d="m785.7,1296c0.6291,0,1.139-0.5091,1.139-1.137,0-0.628-0.5099-1.137-1.139-1.137s-1.139,0.509-1.139,1.137c0,0.6279,0.5099,1.137,1.139,1.137z" class="dark"/>
				<path d="m782.4,1290,0.003,0,3.112,0c0.7156,0,1.301-0.4903,1.294-1.291v-1.667c0-0.6927-0.4488-1.297-1.294-1.297h-3.112-0.005-3.112c-0.8457,0-1.294,0.6045-1.294,1.297v1.667c-0.007,0.801,0.5789,1.291,1.294,1.291h3.112,0.003z" class="dark"/>
				<path d="m782.4,1285,0.003,0,1.258,0c0.2385,0,0.4257-0.1954,0.4257-0.4227v-0.7361c0-0.2273-0.198-0.4182-0.4257-0.4182h-1.258-0.003-0.003-1.258c-0.2277,0-0.4257,0.1909-0.4257,0.4182v0.7361c0,0.2273,0.1872,0.4227,0.4257,0.4227h1.258,0.003z" class="dark"/>
				<path d="m779.2,1296c-0.6291,0-1.139-0.5091-1.139-1.137,0-0.628,0.5099-1.137,1.139-1.137s1.139,0.509,1.139,1.137c0,0.6279-0.5099,1.137-1.139,1.137z"/>
				<text class="iconlabel" xml:space="preserve" y="1294.0822" x="782.44965"><tspan x="782.44965" y="1294.0822">T</tspan></text>
			</g>
		</g>
	</g>
	<g>
		<path d="m744.2,1002c1.793,0,2.8,0.9253,2.8,2.816v19.49c0,1.768-0.9061,2.694-2.697,2.694h-19.6c-1.791,0-2.699-0.8797-2.699-2.694v-19.49c0-1.844,0.9074-2.816,2.755-2.816,0,0,19.45-0.01,19.44,0z" class="dark"/>
		<path d="m741.5,1018,0-11.03-11.05,0.0001-3.645,3.638,8.407,0.0001-8.26,8.245,2.675,2.67,8.23-8.216,0.0001,8.346,3.645-3.652z" class="light"/>
	</g>
	<g>
		<path d="m655.8,1022c-1.793,0-2.8-0.9253-2.8-2.816v-19.49c0-1.768,0.9061-2.694,2.697-2.694h19.6c1.791,0,2.699,0.8797,2.699,2.694v19.49c0,1.844-0.9074,2.816-2.755,2.816,0,0-19.45,0.01-19.44,0z" class="dark"/>
		<path d="m658.5,1006,0,11.03,11.05-0.0001,3.645-3.638-8.407-0.0001,8.26-8.245-2.675-2.67-8.23,8.216-0.0001-8.346-3.645,3.652z" class="light"/>
	</g>
	<g>
		<path d="m428.3,954.5c-1.793,0-2.8-0.9253-2.8-2.816v-19.49c0-1.768,0.9061-2.694,2.697-2.694h19.6c1.791,0,2.699,0.8797,2.699,2.694v19.49c0,1.844-0.9074,2.816-2.755,2.816,0,0-19.45,0.01-19.44,0z" class="dark"/>
		<path d="m431,938.3,0,11.03,11.05-0.0001,3.645-3.638-8.407-0.0001,8.26-8.245-2.675-2.67-8.23,8.216-0.0001-8.346-3.645,3.652z" class="light"/>
	</g>
	<g>
		<path d="m243.8,1164c-1.793,0-2.8-0.9253-2.8-2.816v-19.49c0-1.768,0.9061-2.694,2.697-2.694h19.6c1.791,0,2.699,0.8797,2.699,2.694v19.49c0,1.844-0.9074,2.816-2.755,2.816,0,0-19.45,0.01-19.44,0z" class="dark"/>
		<path d="m246.5,1148,0,11.03,11.05-0.0001,3.645-3.638-8.407-0.0001,8.26-8.245-2.675-2.67-8.23,8.216-0.0001-8.346-3.645,3.652z" class="light"/>
	</g>
	<g>
		<path d="m75.2,1142c1.793,0,2.8,0.9253,2.8,2.816v19.49c0,1.768-0.9061,2.694-2.697,2.694h-19.6c-1.791,0-2.699-0.8797-2.699-2.694v-19.49c0-1.844,0.9074-2.816,2.755-2.816,0,0,19.45-0.01,19.44,0z" class="dark"/>
		<path d="m72.53,1158,0-11.03-11.05,0.0001-3.645,3.638,8.407,0.0001-8.26,8.245,2.675,2.67,8.23-8.216,0.0001,8.346,3.645-3.652z" class="light"/>
	</g>
	<g>
		<path d="m466.3,437.3c-1.793,0-2.8,0.9253-2.8,2.816v19.49c0,1.768,0.9061,2.694,2.697,2.694h19.6c1.791,0,2.699-0.8797,2.699-2.694v-19.49c0-1.844-0.9074-2.816-2.755-2.816,0,0-19.45-0.01-19.44,0z" class="dark"/>
		<path d="m468.9,453.5,0-11.03,11.05,0.0001,3.645,3.638-8.407,0.0001,8.26,8.245-2.675,2.67-8.23-8.216-0.0001,8.346-3.645-3.652z" class="light"/>
	</g>
	<g>
		<path d="m426.3,298.1c-1.793,0-2.8,0.9253-2.8,2.816v19.49c0,1.768,0.9061,2.694,2.697,2.694h19.6c1.791,0,2.699-0.8797,2.699-2.694v-19.49c0-1.844-0.9074-2.816-2.755-2.816,0,0-19.45-0.01-19.44,0z" class="dark"/>
		<path d="m429,314.3,0-11.03,11.05,0.0001,3.645,3.638-8.407,0.0001,8.26,8.245-2.675,2.67-8.23-8.216-0.0001,8.346-3.645-3.652z" class="light"/>
	</g>
	<g>
		<path d="m520.8,168.2c-1.793,0-2.8,0.9253-2.8,2.816v19.49c0,1.768,0.9061,2.694,2.697,2.694h19.6c1.791,0,2.699-0.8797,2.699-2.694v-19.49c0-1.844-0.9074-2.816-2.755-2.816,0,0-19.45-0.01-19.44,0z" class="dark"/>
		<path d="m523.5,184.4,0-11.03,11.05,0.0001,3.645,3.638-8.407,0.0001,8.26,8.245-2.675,2.67-8.23-8.216-0.0001,8.346-3.645-3.652z" class="light"/>
	</g>
	<g>
		<path d="m545.4,96.72c-1.793,0-2.8-0.9253-2.8-2.816v-19.49c0-1.768,0.9061-2.694,2.697-2.694h19.6c1.791,0,2.699,0.8797,2.699,2.694v19.49c0,1.844-0.9074,2.816-2.755,2.816,0,0-19.45,0.01-19.44,0z" class="dark"/>
		<path d="m548.1,80.53,0,11.03,11.05-0.0001,3.645-3.638-8.407-0.0001,8.26-8.245-2.675-2.67-8.23,8.216-0.0001-8.346-3.645,3.652z" class="light"/>
	</g>
	<g>
		<path d="m590.5,302.8c-1.793,0-2.8,0.9253-2.8,2.816v19.49c0,1.768,0.9061,2.694,2.697,2.694h19.6c1.791,0,2.699-0.8797,2.699-2.694v-19.49c0-1.844-0.9074-2.816-2.755-2.816,0,0-19.45-0.01-19.44,0z" class="dark"/>
		<path d="m593.2,319,0-11.03,11.05,0.0001,3.645,3.638-8.407,0.0001,8.26,8.245-2.675,2.67-8.23-8.216-0.0001,8.346-3.645-3.652z" class="light"/>
	</g>
	<g>
		<path d="m690.7,571.1c1.793,0,2.8,0.9253,2.8,2.816v19.49c0,1.768-0.9061,2.694-2.697,2.694h-19.6c-1.791,0-2.699-0.8797-2.699-2.694v-19.49c0-1.844,0.9074-2.816,2.755-2.816,0,0,19.45-0.01,19.44,0z" class="dark"/>
		<path d="m688,587.3,0-11.03-11.05,0.0001-3.645,3.638,8.407,0.0001-8.26,8.245,2.675,2.67,8.23-8.216,0.0001,8.346,3.645-3.652z" class="light"/>
	</g>
	<g>
		<path d="m682.7,468.3c1.793,0,2.8-0.9253,2.8-2.816v-19.49c0-1.768-0.9061-2.694-2.697-2.694h-19.6c-1.791,0-2.699,0.8797-2.699,2.694v19.49c0,1.844,0.9074,2.816,2.755,2.816,0,0,19.45,0.01,19.44,0z" class="dark"/>
		<path d="m680.1,452.1,0,11.03-11.05-0.0001-3.645-3.638,8.407-0.0001-8.26-8.245,2.675-2.67,8.23,8.216,0.0001-8.346,3.645,3.652z" class="light"/>
	</g>
	<g>
		<path d="m790.9,459.7c-1.793,0-2.8-0.9253-2.8-2.816v-19.49c0-1.768,0.9061-2.694,2.697-2.694h19.6c1.791,0,2.699,0.8797,2.699,2.694v19.49c0,1.844-0.9074,2.816-2.755,2.816,0,0-19.45,0.01-19.44,0z" class="dark"/>
		<path d="m793.6,443.5,0,11.03,11.05-0.0001,3.645-3.638-8.407-0.0001,8.26-8.245-2.675-2.67-8.23,8.216-0.0001-8.346-3.645,3.652z" class="light"/>
	</g>
	<g>
		<path d="m798.9,561.9c-1.793,0-2.8,0.9253-2.8,2.816v19.49c0,1.768,0.9061,2.694,2.697,2.694h19.6c1.791,0,2.699-0.8797,2.699-2.694v-19.49c0-1.844-0.9074-2.816-2.755-2.816,0,0-19.45-0.01-19.44,0z" class="dark"/>
		<path d="m801.5,578.1,0-11.03,11.05,0.0001,3.645,3.638-8.407,0.0001,8.26,8.245-2.675,2.67-8.23-8.216-0.0001,8.346-3.645-3.652z" class="light"/>
	</g>
	<g>
		<path d="m1319,487.6c-1.793,0-2.8-0.9253-2.8-2.816v-19.49c0-1.768,0.9061-2.694,2.697-2.694h19.6c1.791,0,2.699,0.8797,2.699,2.694v19.49c0,1.844-0.9074,2.816-2.755,2.816,0,0-19.45,0.01-19.44,0z" class="dark"/>
		<path d="m1321,471.4,0,11.03,11.05-0.0001,3.645-3.638-8.407-0.0001,8.26-8.245-2.675-2.67-8.23,8.216-0.0001-8.346-3.645,3.652z" class="light"/>
	</g>
	<g>
		<path d="m1042,825.8c1.793,0,2.8,0.9253,2.8,2.816v19.49c0,1.768-0.9061,2.694-2.697,2.694h-19.6c-1.791,0-2.699-0.8797-2.699-2.694v-19.49c0-1.844,0.9074-2.816,2.755-2.816,0,0,19.45-0.01,19.44,0z" class="dark"/>
		<path d="m1039,842,0-11.03-11.05,0.0001-3.645,3.638,8.407,0.0001-8.26,8.245,2.675,2.67,8.23-8.216,0.0001,8.346,3.645-3.652z" class="light"/>
	</g>
	<g>
		<path d="m851.1,665.4c1.793,0,2.8,0.9253,2.8,2.816v19.49c0,1.768-0.9061,2.694-2.697,2.694h-19.6c-1.791,0-2.699-0.8797-2.699-2.694v-19.49c0-1.844,0.9074-2.816,2.755-2.816,0,0,19.45-0.01,19.44,0z" class="dark"/>
		<path d="m848.4,681.6,0-11.03-11.05,0.0001-3.645,3.638,8.407,0.0001-8.26,8.245,2.675,2.67,8.23-8.216,0.0001,8.346,3.645-3.652z" class="light"/>
	</g>
</svg>
